<svg width="120" height="100" viewBox="0 0 120 100" fill="none" xmlns="http://www.w3.org/2000/svg">
<path d="M28.0952 84.84H33.4712V86.92H28.0952V84.84ZM28.2872 91H25.6952V79.8H34.1592V81.88H28.2872V91ZM35.7379 91V82.392H38.2339V91H35.7379ZM36.9859 81.192C36.5273 81.192 36.1539 81.0587 35.8659 80.792C35.5779 80.5253 35.4339 80.1947 35.4339 79.8C35.4339 79.4053 35.5779 79.0747 35.8659 78.808C36.1539 78.5413 36.5273 78.408 36.9859 78.408C37.4446 78.408 37.8179 78.536 38.1059 78.792C38.3939 79.0373 38.5379 79.3573 38.5379 79.752C38.5379 80.168 38.3939 80.5147 38.1059 80.792C37.8286 81.0587 37.4553 81.192 36.9859 81.192ZM40.5504 91V82.392H42.9344V84.824L42.5984 84.12C42.8544 83.512 43.2651 83.0533 43.8304 82.744C44.3958 82.424 45.0838 82.264 45.8944 82.264V84.568C45.7878 84.5573 45.6918 84.552 45.6064 84.552C45.5211 84.5413 45.4304 84.536 45.3344 84.536C44.6518 84.536 44.0971 84.7333 43.6704 85.128C43.2544 85.512 43.0464 86.1147 43.0464 86.936V91H40.5504ZM51.5881 91.128C50.6067 91.128 49.7427 90.936 48.9961 90.552C48.2601 90.168 47.6894 89.6453 47.2841 88.984C46.8787 88.312 46.6761 87.5493 46.6761 86.696C46.6761 85.832 46.8734 85.0693 47.2681 84.408C47.6734 83.736 48.2227 83.2133 48.9161 82.84C49.6094 82.456 50.3934 82.264 51.2681 82.264C52.1107 82.264 52.8681 82.4453 53.5401 82.808C54.2227 83.16 54.7614 83.672 55.1561 84.344C55.5507 85.0053 55.7481 85.8 55.7481 86.728C55.7481 86.824 55.7427 86.936 55.7321 87.064C55.7214 87.1813 55.7107 87.2933 55.7001 87.4H48.7081V85.944H54.3881L53.4281 86.376C53.4281 85.928 53.3374 85.5387 53.1561 85.208C52.9747 84.8773 52.7241 84.6213 52.4041 84.44C52.0841 84.248 51.7107 84.152 51.2841 84.152C50.8574 84.152 50.4787 84.248 50.1481 84.44C49.8281 84.6213 49.5774 84.8827 49.3961 85.224C49.2147 85.5547 49.1241 85.9493 49.1241 86.408V86.792C49.1241 87.2613 49.2254 87.6773 49.4281 88.04C49.6414 88.392 49.9347 88.664 50.3081 88.856C50.6921 89.0373 51.1401 89.128 51.6521 89.128C52.1107 89.128 52.5107 89.0587 52.8521 88.92C53.2041 88.7813 53.5241 88.5733 53.8121 88.296L55.1401 89.736C54.7454 90.184 54.2494 90.5307 53.6521 90.776C53.0547 91.0107 52.3667 91.128 51.5881 91.128ZM62.4978 91.128C61.7405 91.128 61.0898 90.968 60.5458 90.648C60.0018 90.328 59.5858 89.8427 59.2978 89.192C59.0098 88.5307 58.8658 87.6987 58.8658 86.696C58.8658 85.6827 59.0151 84.8507 59.3138 84.2C59.6231 83.5493 60.0498 83.064 60.5938 82.744C61.1378 82.424 61.7725 82.264 62.4978 82.264C63.3085 82.264 64.0338 82.4453 64.6738 82.808C65.3245 83.1707 65.8365 83.6827 66.2098 84.344C66.5938 85.0053 66.7858 85.7893 66.7858 86.696C66.7858 87.592 66.5938 88.3707 66.2098 89.032C65.8365 89.6933 65.3245 90.2107 64.6738 90.584C64.0338 90.9467 63.3085 91.128 62.4978 91.128ZM57.4098 91V79.128H59.9058V84.136L59.7458 86.68L59.7938 89.24V91H57.4098ZM62.0658 89.08C62.4818 89.08 62.8498 88.984 63.1698 88.792C63.5005 88.6 63.7618 88.328 63.9538 87.976C64.1565 87.6133 64.2578 87.1867 64.2578 86.696C64.2578 86.1947 64.1565 85.768 63.9538 85.416C63.7618 85.064 63.5005 84.792 63.1698 84.6C62.8498 84.408 62.4818 84.312 62.0658 84.312C61.6498 84.312 61.2765 84.408 60.9458 84.6C60.6151 84.792 60.3538 85.064 60.1618 85.416C59.9698 85.768 59.8738 86.1947 59.8738 86.696C59.8738 87.1867 59.9698 87.6133 60.1618 87.976C60.3538 88.328 60.6151 88.6 60.9458 88.792C61.2765 88.984 61.6498 89.08 62.0658 89.08ZM73.5961 91V89.32L73.4361 88.952V85.944C73.4361 85.4107 73.2707 84.9947 72.9401 84.696C72.6201 84.3973 72.1241 84.248 71.4521 84.248C70.9934 84.248 70.5401 84.3227 70.0921 84.472C69.6547 84.6107 69.2814 84.8027 68.9721 85.048L68.0761 83.304C68.5454 82.9733 69.1107 82.7173 69.7721 82.536C70.4334 82.3547 71.1054 82.264 71.7881 82.264C73.1001 82.264 74.1187 82.5733 74.8441 83.192C75.5694 83.8107 75.9321 84.776 75.9321 86.088V91H73.5961ZM70.9721 91.128C70.3001 91.128 69.7241 91.016 69.2441 90.792C68.7641 90.5573 68.3961 90.2427 68.1401 89.848C67.8841 89.4533 67.7561 89.0107 67.7561 88.52C67.7561 88.008 67.8787 87.56 68.1241 87.176C68.3801 86.792 68.7801 86.4933 69.3241 86.28C69.8681 86.056 70.5774 85.944 71.4521 85.944H73.7401V87.4H71.7241C71.1374 87.4 70.7321 87.496 70.5081 87.688C70.2947 87.88 70.1881 88.12 70.1881 88.408C70.1881 88.728 70.3107 88.984 70.5561 89.176C70.8121 89.3573 71.1587 89.448 71.5961 89.448C72.0121 89.448 72.3854 89.352 72.7161 89.16C73.0467 88.9573 73.2867 88.664 73.4361 88.28L73.8201 89.432C73.6387 89.9867 73.3081 90.408 72.8281 90.696C72.3481 90.984 71.7294 91.128 70.9721 91.128ZM81.0871 91.128C80.3511 91.128 79.6417 91.0427 78.9591 90.872C78.2871 90.6907 77.7537 90.4667 77.3591 90.2L78.1911 88.408C78.5857 88.6533 79.0497 88.856 79.5831 89.016C80.1271 89.1653 80.6604 89.24 81.1831 89.24C81.7591 89.24 82.1644 89.1707 82.3991 89.032C82.6444 88.8933 82.7671 88.7013 82.7671 88.456C82.7671 88.2533 82.6711 88.104 82.4791 88.008C82.2977 87.9013 82.0524 87.8213 81.7431 87.768C81.4337 87.7147 81.0924 87.6613 80.7191 87.608C80.3564 87.5547 79.9884 87.4853 79.6151 87.4C79.2417 87.304 78.9004 87.1653 78.5911 86.984C78.2817 86.8027 78.0311 86.5573 77.8391 86.248C77.6577 85.9387 77.5671 85.5387 77.5671 85.048C77.5671 84.504 77.7217 84.024 78.0311 83.608C78.3511 83.192 78.8097 82.8667 79.4071 82.632C80.0044 82.3867 80.7191 82.264 81.5511 82.264C82.1377 82.264 82.7351 82.328 83.3431 82.456C83.9511 82.584 84.4577 82.7707 84.8631 83.016L84.0311 84.792C83.6151 84.5467 83.1937 84.3813 82.7671 84.296C82.3511 84.2 81.9457 84.152 81.5511 84.152C80.9964 84.152 80.5911 84.2267 80.3351 84.376C80.0791 84.5253 79.9511 84.7173 79.9511 84.952C79.9511 85.1653 80.0417 85.3253 80.2231 85.432C80.4151 85.5387 80.6657 85.624 80.9751 85.688C81.2844 85.752 81.6204 85.8107 81.9831 85.864C82.3564 85.9067 82.7297 85.976 83.1031 86.072C83.4764 86.168 83.8124 86.3067 84.1111 86.488C84.4204 86.6587 84.6711 86.8987 84.8631 87.208C85.0551 87.5067 85.1511 87.9013 85.1511 88.392C85.1511 88.9253 84.9911 89.4 84.6711 89.816C84.3511 90.2213 83.8871 90.5413 83.2791 90.776C82.6817 91.0107 81.9511 91.128 81.0871 91.128ZM90.9631 91.128C89.9817 91.128 89.1177 90.936 88.3711 90.552C87.6351 90.168 87.0644 89.6453 86.6591 88.984C86.2537 88.312 86.0511 87.5493 86.0511 86.696C86.0511 85.832 86.2484 85.0693 86.6431 84.408C87.0484 83.736 87.5977 83.2133 88.2911 82.84C88.9844 82.456 89.7684 82.264 90.6431 82.264C91.4857 82.264 92.2431 82.4453 92.9151 82.808C93.5977 83.16 94.1364 83.672 94.5311 84.344C94.9257 85.0053 95.1231 85.8 95.1231 86.728C95.1231 86.824 95.1177 86.936 95.1071 87.064C95.0964 87.1813 95.0857 87.2933 95.0751 87.4H88.0831V85.944H93.7631L92.8031 86.376C92.8031 85.928 92.7124 85.5387 92.5311 85.208C92.3497 84.8773 92.0991 84.6213 91.7791 84.44C91.4591 84.248 91.0857 84.152 90.6591 84.152C90.2324 84.152 89.8537 84.248 89.5231 84.44C89.2031 84.6213 88.9524 84.8827 88.7711 85.224C88.5897 85.5547 88.4991 85.9493 88.4991 86.408V86.792C88.4991 87.2613 88.6004 87.6773 88.8031 88.04C89.0164 88.392 89.3097 88.664 89.6831 88.856C90.0671 89.0373 90.5151 89.128 91.0271 89.128C91.4857 89.128 91.8857 89.0587 92.2271 88.92C92.5791 88.7813 92.8991 88.5733 93.1871 88.296L94.5151 89.736C94.1204 90.184 93.6244 90.5307 93.0271 90.776C92.4297 91.0107 91.7417 91.128 90.9631 91.128Z" fill="black"/>
<path d="M37.6875 59.8125L38.0594 59.2941L55.6031 26.0135L55.6403 25.6613L47.9075 11.1363C47.7659 10.8707 47.5444 10.6563 47.2743 10.5235C47.0042 10.3907 46.6992 10.3461 46.4024 10.3962C46.1056 10.4463 45.8321 10.5884 45.6205 10.8025C45.4089 11.0166 45.27 11.2917 45.2234 11.5891L37.6875 59.8125Z" fill="#FFC24A"/>
<path d="M37.9062 59.4188L38.1862 58.8719L55.5484 25.9369L47.8353 11.355C47.7081 11.1014 47.5022 10.8959 47.2483 10.7692C46.9945 10.6425 46.7065 10.6014 46.4273 10.6522C46.1482 10.7029 45.893 10.8427 45.7001 11.0507C45.5071 11.2586 45.3867 11.5235 45.3569 11.8057L37.9062 59.4188Z" fill="#FFA712"/>
<path d="M61.2776 36.6468L67.0351 30.7406L61.2754 19.7572C61.1486 19.5208 60.9601 19.3232 60.7299 19.1855C60.4998 19.0477 60.2366 18.975 59.9683 18.975C59.7001 18.975 59.4369 19.0477 59.2067 19.1855C58.9766 19.3232 58.7881 19.5208 58.6613 19.7572L55.5835 25.624V26.125L61.2776 36.6468Z" fill="#F4BD62"/>
<path d="M61.1746 36.4063L66.7724 30.6751L61.1746 20.0001C61.083 19.769 60.9265 19.5693 60.724 19.4252C60.5215 19.2811 60.2816 19.1986 60.0332 19.1878C59.7849 19.1769 59.5387 19.2381 59.3244 19.364C59.1101 19.4899 58.9367 19.6751 58.8253 19.8972L55.7321 25.8669L55.6403 26.171L61.1746 36.4063Z" fill="#FFA50E"/>
<path d="M37.6919 59.8147L37.8603 59.6441L38.4706 59.3969L60.9144 37.0363L61.1988 36.2619L55.601 25.5913L37.6919 59.8147Z" fill="#F6820C"/>
<path d="M61.995 71.0912L82.3125 59.7621L76.5069 24.0381C76.4653 23.7862 76.3551 23.5507 76.1884 23.3574C76.0217 23.1641 75.805 23.0205 75.562 22.9423C75.319 22.8641 75.0592 22.8543 74.811 22.9141C74.5629 22.9739 74.336 23.1009 74.1553 23.2812L37.6875 59.8125L57.8847 71.089C58.5126 71.4394 59.2197 71.6233 59.9387 71.6233C60.6578 71.6233 61.3649 71.4394 61.9928 71.089" fill="#FDE068"/>
<path d="M82.1266 59.6681L76.3691 24.2131C76.3589 23.9722 76.2775 23.7398 76.1352 23.5452C75.9929 23.3506 75.796 23.2026 75.5695 23.1199C75.3431 23.0372 75.0971 23.0236 74.8629 23.0807C74.6287 23.1379 74.4167 23.2632 74.2538 23.4409L37.9062 59.7446L57.8803 70.9009C58.5032 71.2484 59.2047 71.4308 59.918 71.4308C60.6313 71.4308 61.3327 71.2484 61.9556 70.9009L82.1266 59.6681Z" fill="#FCCA3F"/>
<path d="M61.995 70.75C61.3671 71.1004 60.66 71.2843 59.9409 71.2843C59.2219 71.2843 58.5148 71.1004 57.8869 70.75L37.8537 59.6419L37.6875 59.8125L57.8847 71.0891C58.5126 71.4394 59.2197 71.6234 59.9387 71.6234C60.6578 71.6234 61.3649 71.4394 61.9928 71.0891L82.3125 59.7622L82.2622 59.4559L61.995 70.75Z" fill="#EEAB37"/>
</svg>
