<svg width="120" height="100" viewBox="0 0 120 100" fill="none" xmlns="http://www.w3.org/2000/svg">
<path d="M38.125 69.25L33.75 14.5625H86.25L81.875 69.25L60 75.8125L38.125 69.25Z" fill="#E44D26"/>
<path d="M81.875 18.9375H60V72.5312L77.5 67.0625L81.875 18.9375Z" fill="#F16529"/>
<path d="M45.7812 46.2812L43.5938 25.5H77.5L76.4062 32.0625H50.1562L51.25 39.7188H75.3125L73.125 60.5L60 64.875L46.875 60.5L45.7812 49.5625H52.3438L53.4375 55.0312L60 57.2188L66.5625 55.0312L67.6562 46.2812H45.7812Z" fill="white"/>
<path d="M48.133 81.8H50.725V93H48.133V81.8ZM43.045 93H40.453V81.8H43.045V93ZM48.325 88.408H42.853V86.216H48.325V88.408ZM55.6949 93V83.912H52.1109V81.8H61.8709V83.912H58.2869V93H55.6949ZM63.2655 93V81.8H65.4095L70.1775 89.704H69.0415L73.7295 81.8H75.8575L75.8895 93H73.4575L73.4415 85.528H73.8895L70.1455 91.816H68.9775L65.1535 85.528H65.6975V93H63.2655ZM78.5468 93V81.8H81.1388V90.888H86.7548V93H78.5468Z" fill="black"/>
</svg>
