<svg width="120" height="100" viewBox="0 0 120 100" fill="none" xmlns="http://www.w3.org/2000/svg">
<path d="M19.9701 92.192C19.2128 92.192 18.5141 92.0533 17.8741 91.776C17.2448 91.488 16.7275 91.0827 16.3221 90.56L17.7621 88.832C18.0715 89.2373 18.3968 89.5467 18.7381 89.76C19.0795 89.9627 19.4475 90.064 19.8421 90.064C20.8981 90.064 21.4261 89.4453 21.4261 88.208V82.88H17.4901V80.8H24.0021V88.064C24.0021 89.4507 23.6608 90.4853 22.9781 91.168C22.2955 91.8507 21.2928 92.192 19.9701 92.192ZM31.6664 92V90.32L31.5064 89.952V86.944C31.5064 86.4107 31.341 85.9947 31.0104 85.696C30.6904 85.3973 30.1944 85.248 29.5224 85.248C29.0637 85.248 28.6104 85.3227 28.1624 85.472C27.725 85.6107 27.3517 85.8027 27.0424 86.048L26.1464 84.304C26.6157 83.9733 27.181 83.7173 27.8424 83.536C28.5037 83.3547 29.1757 83.264 29.8584 83.264C31.1704 83.264 32.189 83.5733 32.9144 84.192C33.6397 84.8107 34.0024 85.776 34.0024 87.088V92H31.6664ZM29.0424 92.128C28.3704 92.128 27.7944 92.016 27.3144 91.792C26.8344 91.5573 26.4664 91.2427 26.2104 90.848C25.9544 90.4533 25.8264 90.0107 25.8264 89.52C25.8264 89.008 25.949 88.56 26.1944 88.176C26.4504 87.792 26.8504 87.4933 27.3944 87.28C27.9384 87.056 28.6477 86.944 29.5224 86.944H31.8104V88.4H29.7944C29.2077 88.4 28.8024 88.496 28.5784 88.688C28.365 88.88 28.2584 89.12 28.2584 89.408C28.2584 89.728 28.381 89.984 28.6264 90.176C28.8824 90.3573 29.229 90.448 29.6664 90.448C30.0824 90.448 30.4557 90.352 30.7864 90.16C31.117 89.9573 31.357 89.664 31.5064 89.28L31.8904 90.432C31.709 90.9867 31.3784 91.408 30.8984 91.696C30.4184 91.984 29.7997 92.128 29.0424 92.128ZM38.4411 92L34.8251 83.392H37.4011L40.4091 90.8H39.1291L42.2491 83.392H44.6491L41.0171 92H38.4411ZM50.6664 92V90.32L50.5064 89.952V86.944C50.5064 86.4107 50.341 85.9947 50.0104 85.696C49.6904 85.3973 49.1944 85.248 48.5224 85.248C48.0637 85.248 47.6104 85.3227 47.1624 85.472C46.725 85.6107 46.3517 85.8027 46.0424 86.048L45.1464 84.304C45.6157 83.9733 46.181 83.7173 46.8424 83.536C47.5037 83.3547 48.1757 83.264 48.8584 83.264C50.1704 83.264 51.189 83.5733 51.9144 84.192C52.6397 84.8107 53.0024 85.776 53.0024 87.088V92H50.6664ZM48.0424 92.128C47.3704 92.128 46.7944 92.016 46.3144 91.792C45.8344 91.5573 45.4664 91.2427 45.2104 90.848C44.9544 90.4533 44.8264 90.0107 44.8264 89.52C44.8264 89.008 44.949 88.56 45.1944 88.176C45.4504 87.792 45.8504 87.4933 46.3944 87.28C46.9384 87.056 47.6477 86.944 48.5224 86.944H50.8104V88.4H48.7944C48.2077 88.4 47.8024 88.496 47.5784 88.688C47.365 88.88 47.2584 89.12 47.2584 89.408C47.2584 89.728 47.381 89.984 47.6264 90.176C47.8824 90.3573 48.229 90.448 48.6664 90.448C49.0824 90.448 49.4557 90.352 49.7864 90.16C50.117 89.9573 50.357 89.664 50.5064 89.28L50.8904 90.432C50.709 90.9867 50.3784 91.408 49.8984 91.696C49.4184 91.984 48.7997 92.128 48.0424 92.128ZM59.1174 92.192C58.2214 92.192 57.3627 92.0747 56.5414 91.84C55.72 91.5947 55.0587 91.28 54.5574 90.896L55.4374 88.944C55.9174 89.2853 56.4827 89.568 57.1334 89.792C57.7947 90.0053 58.4614 90.112 59.1334 90.112C59.6454 90.112 60.056 90.064 60.3654 89.968C60.6854 89.8613 60.92 89.7173 61.0694 89.536C61.2187 89.3547 61.2934 89.1467 61.2934 88.912C61.2934 88.6133 61.176 88.3787 60.9414 88.208C60.7067 88.0267 60.3974 87.8827 60.0134 87.776C59.6294 87.6587 59.2027 87.552 58.7334 87.456C58.2747 87.3493 57.8107 87.2213 57.3414 87.072C56.8827 86.9227 56.4614 86.7307 56.0774 86.496C55.6934 86.2613 55.3787 85.952 55.1334 85.568C54.8987 85.184 54.7814 84.6933 54.7814 84.096C54.7814 83.456 54.952 82.8747 55.2934 82.352C55.6454 81.8187 56.168 81.3973 56.8614 81.088C57.5654 80.768 58.4454 80.608 59.5014 80.608C60.2054 80.608 60.8987 80.6933 61.5814 80.864C62.264 81.024 62.8667 81.2693 63.3894 81.6L62.5894 83.568C62.0667 83.2693 61.544 83.0507 61.0214 82.912C60.4987 82.7627 59.9867 82.688 59.4854 82.688C58.984 82.688 58.5734 82.7467 58.2534 82.864C57.9334 82.9813 57.704 83.136 57.5654 83.328C57.4267 83.5093 57.3574 83.7227 57.3574 83.968C57.3574 84.256 57.4747 84.4907 57.7094 84.672C57.944 84.8427 58.2534 84.9813 58.6374 85.088C59.0214 85.1947 59.4427 85.3013 59.9014 85.408C60.3707 85.5147 60.8347 85.6373 61.2934 85.776C61.7627 85.9147 62.1894 86.1013 62.5734 86.336C62.9574 86.5707 63.2667 86.88 63.5014 87.264C63.7467 87.648 63.8694 88.1333 63.8694 88.72C63.8694 89.3493 63.6934 89.9253 63.3414 90.448C62.9894 90.9707 62.4614 91.392 61.7574 91.712C61.064 92.032 60.184 92.192 59.1174 92.192ZM69.6245 92.128C68.6965 92.128 67.8698 91.9413 67.1445 91.568C66.4192 91.184 65.8485 90.656 65.4325 89.984C65.0272 89.312 64.8245 88.5493 64.8245 87.696C64.8245 86.832 65.0272 86.0693 65.4325 85.408C65.8485 84.736 66.4192 84.2133 67.1445 83.84C67.8698 83.456 68.6965 83.264 69.6245 83.264C70.5312 83.264 71.3205 83.456 71.9925 83.84C72.6645 84.2133 73.1605 84.752 73.4805 85.456L71.5445 86.496C71.3205 86.0907 71.0378 85.792 70.6965 85.6C70.3658 85.408 70.0032 85.312 69.6085 85.312C69.1818 85.312 68.7978 85.408 68.4565 85.6C68.1152 85.792 67.8432 86.064 67.6405 86.416C67.4485 86.768 67.3525 87.1947 67.3525 87.696C67.3525 88.1973 67.4485 88.624 67.6405 88.976C67.8432 89.328 68.1152 89.6 68.4565 89.792C68.7978 89.984 69.1818 90.08 69.6085 90.08C70.0032 90.08 70.3658 89.9893 70.6965 89.808C71.0378 89.616 71.3205 89.312 71.5445 88.896L73.4805 89.952C73.1605 90.6453 72.6645 91.184 71.9925 91.568C71.3205 91.9413 70.5312 92.128 69.6245 92.128ZM74.9176 92V83.392H77.3016V85.824L76.9656 85.12C77.2216 84.512 77.6323 84.0533 78.1976 83.744C78.763 83.424 79.451 83.264 80.2616 83.264V85.568C80.155 85.5573 80.059 85.552 79.9736 85.552C79.8883 85.5413 79.7976 85.536 79.7016 85.536C79.019 85.536 78.4643 85.7333 78.0376 86.128C77.6216 86.512 77.4136 87.1147 77.4136 87.936V92H74.9176ZM81.7614 92V83.392H84.2574V92H81.7614ZM83.0094 82.192C82.5507 82.192 82.1774 82.0587 81.8894 81.792C81.6014 81.5253 81.4574 81.1947 81.4574 80.8C81.4574 80.4053 81.6014 80.0747 81.8894 79.808C82.1774 79.5413 82.5507 79.408 83.0094 79.408C83.468 79.408 83.8414 79.536 84.1294 79.792C84.4174 80.0373 84.5614 80.3573 84.5614 80.752C84.5614 81.168 84.4174 81.5147 84.1294 81.792C83.852 82.0587 83.4787 82.192 83.0094 82.192ZM91.6619 92.128C90.9365 92.128 90.3019 91.968 89.7579 91.648C89.2139 91.328 88.7872 90.8427 88.4779 90.192C88.1792 89.5307 88.0299 88.6987 88.0299 87.696C88.0299 86.6827 88.1739 85.8507 88.4619 85.2C88.7499 84.5493 89.1659 84.064 89.7099 83.744C90.2539 83.424 90.9045 83.264 91.6619 83.264C92.4725 83.264 93.1979 83.4507 93.8379 83.824C94.4885 84.1867 95.0005 84.6987 95.3739 85.36C95.7579 86.0213 95.9499 86.8 95.9499 87.696C95.9499 88.6027 95.7579 89.3867 95.3739 90.048C95.0005 90.7093 94.4885 91.2213 93.8379 91.584C93.1979 91.9467 92.4725 92.128 91.6619 92.128ZM86.5739 95.104V83.392H88.9579V85.152L88.9099 87.712L89.0699 90.256V95.104H86.5739ZM91.2299 90.08C91.6459 90.08 92.0139 89.984 92.3339 89.792C92.6645 89.6 92.9259 89.328 93.1179 88.976C93.3205 88.6133 93.4219 88.1867 93.4219 87.696C93.4219 87.1947 93.3205 86.768 93.1179 86.416C92.9259 86.064 92.6645 85.792 92.3339 85.6C92.0139 85.408 91.6459 85.312 91.2299 85.312C90.8139 85.312 90.4405 85.408 90.1099 85.6C89.7792 85.792 89.5179 86.064 89.3259 86.416C89.1339 86.768 89.0379 87.1947 89.0379 87.696C89.0379 88.1867 89.1339 88.6133 89.3259 88.976C89.5179 89.328 89.7792 89.6 90.1099 89.792C90.4405 89.984 90.8139 90.08 91.2299 90.08ZM101.141 92.128C100.127 92.128 99.3381 91.872 98.7728 91.36C98.2074 90.8373 97.9248 90.064 97.9248 89.04V81.488H100.421V89.008C100.421 89.3707 100.517 89.6533 100.709 89.856C100.901 90.048 101.162 90.144 101.493 90.144C101.887 90.144 102.223 90.0373 102.501 89.824L103.173 91.584C102.917 91.7653 102.607 91.904 102.245 92C101.893 92.0853 101.525 92.128 101.141 92.128ZM96.5968 85.504V83.584H102.565V85.504H96.5968Z" fill="black"/>
<g clip-path="url(#clip0_48_232)">
<path d="M84.5 7H35.5C29.701 7 25 11.701 25 17.5V66.5C25 72.299 29.701 77 35.5 77H84.5C90.299 77 95 72.299 95 66.5V17.5C95 11.701 90.299 7 84.5 7Z" fill="#F7DF1E"/>
<path d="M69.2969 57.5859C70.6641 59.9102 72.5781 61.5508 75.7227 61.5508C78.457 61.5508 80.2344 60.1836 80.2344 58.2695C80.2344 56.082 78.457 55.2617 75.4492 53.8945L73.8086 53.2109C69.0234 51.1602 65.8789 48.6992 65.8789 43.3672C65.8789 38.4453 69.5703 34.6172 75.4492 34.6172C79.6875 34.6172 82.6953 36.1211 84.7461 39.9492L79.6875 43.2305C78.5938 41.1797 77.3633 40.3594 75.4492 40.3594C73.5352 40.3594 72.3047 41.5898 72.3047 43.2305C72.3047 45.1445 73.5352 45.9648 76.4062 47.1953L78.0469 47.8789C83.6523 50.3398 86.7969 52.6641 86.7969 58.2695C86.7969 64.1484 82.1484 67.4297 75.8594 67.4297C69.707 67.4297 65.7422 64.5586 63.8281 60.7305L69.2969 57.5859ZM46.0547 58.1328C47.1484 59.9102 47.9688 61.5508 50.293 61.5508C52.4805 61.5508 53.8477 60.7305 53.8477 57.4492V34.7539H60.4102V57.1758C60.4102 64.0117 56.4453 67.0195 50.5664 67.0195C45.2344 67.0195 42.2266 64.2852 40.7227 61.0039L46.0547 58.1328Z" fill="black"/>
</g>
<defs>
<clipPath id="clip0_48_232">
<rect width="70" height="70" fill="white" transform="translate(25 7)"/>
</clipPath>
</defs>
</svg>
