<svg width="120" height="100" viewBox="0 0 120 100" fill="none" xmlns="http://www.w3.org/2000/svg">
<path d="M32.9218 88V76.8H35.5138V85.888H41.1298V88H32.9218ZM47.7445 88V86.32L47.5845 85.952V82.944C47.5845 82.4107 47.4192 81.9947 47.0885 81.696C46.7685 81.3973 46.2725 81.248 45.6005 81.248C45.1418 81.248 44.6885 81.3227 44.2405 81.472C43.8032 81.6107 43.4298 81.8027 43.1205 82.048L42.2245 80.304C42.6938 79.9733 43.2592 79.7173 43.9205 79.536C44.5818 79.3547 45.2538 79.264 45.9365 79.264C47.2485 79.264 48.2672 79.5733 48.9925 80.192C49.7178 80.8107 50.0805 81.776 50.0805 83.088V88H47.7445ZM45.1205 88.128C44.4485 88.128 43.8725 88.016 43.3925 87.792C42.9125 87.5573 42.5445 87.2427 42.2885 86.848C42.0325 86.4533 41.9045 86.0107 41.9045 85.52C41.9045 85.008 42.0272 84.56 42.2725 84.176C42.5285 83.792 42.9285 83.4933 43.4725 83.28C44.0165 83.056 44.7258 82.944 45.6005 82.944H47.8885V84.4H45.8725C45.2858 84.4 44.8805 84.496 44.6565 84.688C44.4432 84.88 44.3365 85.12 44.3365 85.408C44.3365 85.728 44.4592 85.984 44.7045 86.176C44.9605 86.3573 45.3072 86.448 45.7445 86.448C46.1605 86.448 46.5338 86.352 46.8645 86.16C47.1952 85.9573 47.4352 85.664 47.5845 85.28L47.9685 86.432C47.7872 86.9867 47.4565 87.408 46.9765 87.696C46.4965 87.984 45.8778 88.128 45.1205 88.128ZM52.3395 88V79.392H54.7235V81.824L54.3875 81.12C54.6435 80.512 55.0542 80.0533 55.6195 79.744C56.1848 79.424 56.8728 79.264 57.6835 79.264V81.568C57.5768 81.5573 57.4808 81.552 57.3955 81.552C57.3102 81.5413 57.2195 81.536 57.1235 81.536C56.4408 81.536 55.8862 81.7333 55.4595 82.128C55.0435 82.512 54.8355 83.1147 54.8355 83.936V88H52.3395ZM63.8851 88V86.32L63.7251 85.952V82.944C63.7251 82.4107 63.5598 81.9947 63.2291 81.696C62.9091 81.3973 62.4131 81.248 61.7411 81.248C61.2825 81.248 60.8291 81.3227 60.3811 81.472C59.9438 81.6107 59.5705 81.8027 59.2611 82.048L58.3651 80.304C58.8345 79.9733 59.3998 79.7173 60.0611 79.536C60.7225 79.3547 61.3945 79.264 62.0771 79.264C63.3891 79.264 64.4078 79.5733 65.1331 80.192C65.8585 80.8107 66.2211 81.776 66.2211 83.088V88H63.8851ZM61.2611 88.128C60.5891 88.128 60.0131 88.016 59.5331 87.792C59.0531 87.5573 58.6851 87.2427 58.4291 86.848C58.1731 86.4533 58.0451 86.0107 58.0451 85.52C58.0451 85.008 58.1678 84.56 58.4131 84.176C58.6691 83.792 59.0691 83.4933 59.6131 83.28C60.1571 83.056 60.8665 82.944 61.7411 82.944H64.0291V84.4H62.0131C61.4265 84.4 61.0211 84.496 60.7971 84.688C60.5838 84.88 60.4771 85.12 60.4771 85.408C60.4771 85.728 60.5998 85.984 60.8451 86.176C61.1011 86.3573 61.4478 86.448 61.8851 86.448C62.3011 86.448 62.6745 86.352 63.0051 86.16C63.3358 85.9573 63.5758 85.664 63.7251 85.28L64.1091 86.432C63.9278 86.9867 63.5971 87.408 63.1171 87.696C62.6371 87.984 62.0185 88.128 61.2611 88.128ZM70.6599 88L67.0439 79.392H69.6199L72.6279 86.8H71.3479L74.4679 79.392H76.8679L73.2359 88H70.6599ZM81.924 88.128C80.9427 88.128 80.0787 87.936 79.332 87.552C78.596 87.168 78.0253 86.6453 77.62 85.984C77.2147 85.312 77.012 84.5493 77.012 83.696C77.012 82.832 77.2093 82.0693 77.604 81.408C78.0093 80.736 78.5587 80.2133 79.252 79.84C79.9453 79.456 80.7293 79.264 81.604 79.264C82.4467 79.264 83.204 79.4453 83.876 79.808C84.5587 80.16 85.0973 80.672 85.492 81.344C85.8867 82.0053 86.084 82.8 86.084 83.728C86.084 83.824 86.0787 83.936 86.068 84.064C86.0573 84.1813 86.0467 84.2933 86.036 84.4H79.044V82.944H84.724L83.764 83.376C83.764 82.928 83.6733 82.5387 83.492 82.208C83.3107 81.8773 83.06 81.6213 82.74 81.44C82.42 81.248 82.0467 81.152 81.62 81.152C81.1933 81.152 80.8147 81.248 80.484 81.44C80.164 81.6213 79.9133 81.8827 79.732 82.224C79.5507 82.5547 79.46 82.9493 79.46 83.408V83.792C79.46 84.2613 79.5613 84.6773 79.764 85.04C79.9773 85.392 80.2707 85.664 80.644 85.856C81.028 86.0373 81.476 86.128 81.988 86.128C82.4467 86.128 82.8467 86.0587 83.188 85.92C83.54 85.7813 83.86 85.5733 84.148 85.296L85.476 86.736C85.0813 87.184 84.5853 87.5307 83.988 87.776C83.3907 88.0107 82.7027 88.128 81.924 88.128ZM87.7458 88V76.128H90.2418V88H87.7458Z" fill="black"/>
<path d="M93.9011 18.8082C93.9262 18.9014 93.9393 18.9974 93.9393 19.0939V34.0931C93.9393 34.4849 93.7297 34.8468 93.3898 35.0418L80.8008 42.2898V56.656C80.8008 57.047 80.593 57.4078 80.2539 57.6047L53.9754 72.7323C53.9153 72.7665 53.8496 72.7884 53.784 72.8116C53.7594 72.8198 53.7362 72.8348 53.7102 72.8417C53.5265 72.8901 53.3334 72.8901 53.1497 72.8417C53.1196 72.8335 53.0923 72.8171 53.0636 72.8061C53.0035 72.7843 52.9406 72.7651 52.8832 72.7323L26.6101 57.6047C26.2704 57.4095 26.0605 57.0478 26.0605 56.656V11.6586C26.0605 11.5602 26.0742 11.4645 26.0988 11.3716C26.107 11.3401 26.1262 11.3114 26.1371 11.28C26.1576 11.2225 26.1767 11.1638 26.2068 11.1104C26.2273 11.0749 26.2574 11.0462 26.282 11.0134C26.3134 10.9696 26.3422 10.9245 26.3791 10.8863C26.4105 10.8548 26.4515 10.8316 26.4871 10.8042C26.5267 10.7714 26.5622 10.7359 26.6074 10.7099H26.6087L39.7459 3.1461C40.0845 2.9513 40.501 2.9513 40.8396 3.1461L53.9768 10.7099H53.9795C54.0233 10.7372 54.0602 10.7714 54.0998 10.8029C54.1354 10.8302 54.175 10.8548 54.2064 10.8849C54.2447 10.9245 54.2721 10.9696 54.3049 11.0134C54.3281 11.0462 54.3596 11.0749 54.3787 11.1104C54.4101 11.1651 54.4279 11.2225 54.4498 11.28C54.4607 11.3114 54.4798 11.3401 54.4881 11.3729C54.5132 11.4661 54.5261 11.5621 54.5263 11.6586V39.7635L65.4735 33.4601V19.0926C65.4735 18.9969 65.4872 18.8998 65.5118 18.8082C65.5214 18.7754 65.5392 18.7467 65.5501 18.7153C65.572 18.6579 65.5911 18.5991 65.6212 18.5458C65.6417 18.5102 65.6718 18.4815 65.695 18.4487C65.7278 18.4049 65.7552 18.3598 65.7934 18.3216C65.8249 18.2901 65.8645 18.2669 65.9001 18.2395C65.9411 18.2067 65.9766 18.1712 66.0204 18.1452H66.0217L79.1603 10.5814C79.4988 10.3863 79.9155 10.3863 80.2539 10.5814L93.3912 18.1452C93.4376 18.1726 93.4732 18.2067 93.5142 18.2382C93.5484 18.2655 93.588 18.2901 93.6194 18.3202C93.6577 18.3598 93.6851 18.4049 93.7179 18.4487C93.7425 18.4815 93.7726 18.5102 93.7917 18.5458C93.8231 18.5991 93.8409 18.6579 93.8628 18.7153C93.8751 18.7467 93.8929 18.7754 93.9011 18.8082ZM91.7493 33.4601V20.9873L87.152 23.6339L80.8008 27.2907V39.7635L91.7507 33.4601H91.7493ZM78.6121 56.023V43.542L72.3648 47.11L54.525 57.2916V69.8903L78.6121 56.023ZM28.2505 13.552V56.023L52.335 69.8889V57.293L39.7528 50.1721L39.7487 50.1694L39.7432 50.1667C39.7008 50.1421 39.6653 50.1065 39.6256 50.0764C39.5915 50.0491 39.5518 50.0272 39.5217 49.9971L39.519 49.993C39.4835 49.9589 39.4589 49.9165 39.4288 49.8782C39.4014 49.8413 39.3686 49.8099 39.3468 49.7716L39.3454 49.7675C39.3208 49.7265 39.3058 49.6773 39.288 49.6308C39.2702 49.5898 39.247 49.5515 39.236 49.5077V49.5064C39.2224 49.4544 39.2196 49.3997 39.2142 49.3464C39.2087 49.3054 39.1978 49.2644 39.1978 49.2234V49.2207V19.8554L32.8479 16.1972L28.2505 13.5533V13.552ZM40.2941 5.35796L29.3483 11.6586L40.2914 17.9593L51.2359 11.6573L40.2914 5.35796H40.2941ZM45.9865 44.6794L52.3363 41.0239V13.552L47.739 16.1986L41.3877 19.8554V47.3273L45.9865 44.6794ZM79.7071 12.7933L68.7626 19.0939L79.7071 25.3946L90.6502 19.0926L79.7071 12.7933ZM78.6121 27.2907L72.2609 23.6339L67.6635 20.9873V33.4601L74.0134 37.1156L78.6121 39.7635V27.2907ZM53.4286 55.3983L69.4817 46.2337L77.5062 41.6541L66.5699 35.3576L53.9781 42.607L42.5019 49.2138L53.4286 55.3983Z" fill="#FF2D20"/>
</svg>
