<svg width="120" height="100" viewBox="0 0 120 100" fill="none" xmlns="http://www.w3.org/2000/svg">
<g clip-path="url(#clip0_155_6)">
<path d="M42.2748 79.96L39.2508 86.072H37.7628L34.7548 79.96V87H32.2588V75.816H35.6348L38.5148 81.96L41.4108 75.816H44.7708V87H42.2748V79.96ZM48.7724 90.392C47.9298 90.392 47.1351 90.0507 46.3884 89.368L47.4764 87.592C47.8818 87.9867 48.2978 88.184 48.7244 88.184C48.9484 88.184 49.1404 88.072 49.3004 87.848C49.4604 87.6347 49.5404 87.4053 49.5404 87.16C49.5404 86.9147 48.4311 83.992 46.2124 78.392H48.7724L50.8684 83.752L52.9644 78.392H55.5244L51.5244 88.536C51.2898 89.1227 50.9218 89.576 50.4204 89.896C49.9298 90.2267 49.3804 90.392 48.7724 90.392ZM60.5619 77.752C60.1459 77.752 59.8153 77.8533 59.5699 78.056C59.3353 78.248 59.2179 78.5093 59.2179 78.84C59.2179 79.16 59.3619 79.416 59.6499 79.608C59.9486 79.8 60.6259 80.0293 61.6819 80.296C62.7486 80.552 63.5753 80.9413 64.1619 81.464C64.7486 81.9867 65.0419 82.7493 65.0419 83.752C65.0419 84.7547 64.6633 85.5707 63.9059 86.2C63.1593 86.8187 62.1726 87.128 60.9459 87.128C59.1753 87.128 57.5806 86.472 56.1619 85.16L57.6499 83.336C58.8553 84.392 59.9699 84.92 60.9939 84.92C61.4526 84.92 61.8099 84.824 62.0659 84.632C62.3326 84.4293 62.4659 84.1627 62.4659 83.832C62.4659 83.4907 62.3273 83.224 62.0499 83.032C61.7726 82.8293 61.2233 82.6267 60.4019 82.424C59.1006 82.1147 58.1459 81.7147 57.5379 81.224C56.9406 80.7227 56.6419 79.944 56.6419 78.888C56.6419 77.8213 57.0206 77 57.7779 76.424C58.5459 75.848 59.5006 75.56 60.6419 75.56C61.3886 75.56 62.1353 75.688 62.8819 75.944C63.6286 76.2 64.2793 76.5627 64.8339 77.032L63.5699 78.856C62.5993 78.12 61.5966 77.752 60.5619 77.752ZM78.2691 81.336C78.2691 82.4987 77.9704 83.544 77.3731 84.472C76.7864 85.4 75.9917 86.0933 74.9891 86.552C75.0851 86.712 75.2344 86.8507 75.4371 86.968C75.6504 87.0747 75.8691 87.128 76.0931 87.128C76.3171 87.128 76.5357 87.0907 76.7491 87.016C76.9624 86.952 77.1331 86.872 77.2611 86.776C77.5384 86.552 77.7357 86.3333 77.8531 86.12L79.1491 87.672C78.2317 88.6427 77.0851 89.128 75.7091 89.128C75.0691 89.128 74.4397 88.952 73.8211 88.6C73.2024 88.248 72.7277 87.752 72.3971 87.112C70.7437 87.112 69.3517 86.5627 68.2211 85.464C67.0904 84.3547 66.5251 82.9787 66.5251 81.336C66.5251 79.6933 67.0904 78.3227 68.2211 77.224C69.3517 76.1147 70.7437 75.56 72.3971 75.56C74.0504 75.56 75.4424 76.1147 76.5731 77.224C77.7037 78.3227 78.2691 79.6933 78.2691 81.336ZM75.7251 81.352C75.7251 80.3493 75.4051 79.496 74.7651 78.792C74.1251 78.088 73.3357 77.736 72.3971 77.736C71.4691 77.736 70.6851 78.088 70.0451 78.792C69.4051 79.496 69.0851 80.3493 69.0851 81.352C69.0851 82.344 69.4051 83.192 70.0451 83.896C70.6851 84.5893 71.4691 84.936 72.3971 84.936C73.3357 84.936 74.1251 84.5893 74.7651 83.896C75.4051 83.192 75.7251 82.344 75.7251 81.352ZM80.3994 87V75.816H82.8954V84.776H87.6634V87H80.3994Z" fill="black"/>
<path d="M86.2821 5.75H60.6254L55.3754 16.25H26.125V60.875H91.75V5.75H86.2821ZM86.5 16.25H65.9988L68.7498 11H86.5V16.25Z" fill="#2A4B59"/>
<path fill-rule="evenodd" clip-rule="evenodd" d="M55.0472 28.6269C54.524 28.6214 54.0024 28.685 53.4958 28.8159V28.892H53.5693C53.9315 29.44 54.3361 29.9587 54.7795 30.4434C55.084 31.0498 55.3491 31.6509 55.651 32.2573L55.7245 32.1812C56.0046 31.9576 56.2237 31.6669 56.3614 31.336C56.499 31.0051 56.5509 30.6448 56.512 30.2885C56.3465 30.0344 56.1949 29.7716 56.0578 29.501C55.8321 29.123 55.3386 28.934 55.0341 28.6322" fill="white"/>
<path fill-rule="evenodd" clip-rule="evenodd" d="M92.611 61.6258C90.1141 61.4468 87.6079 61.8048 85.261 62.6758C84.694 62.9015 83.7857 62.9015 83.7096 63.6208C84.0141 63.9227 84.0509 64.4083 84.3186 64.8335C84.8366 65.7099 85.5017 66.4904 86.2847 67.1409C87.0722 67.7473 87.8729 68.3484 88.7076 68.8787C90.1829 69.7895 91.8576 70.3172 93.283 71.2254C94.1177 71.7504 94.9472 72.4355 95.7846 73.0052C96.1994 73.307 96.4619 73.7927 96.9921 73.9869V73.8714C96.8355 73.451 96.6422 73.0452 96.4146 72.6587C96.0366 72.2833 95.6586 71.9394 95.278 71.564C94.1677 70.0978 92.8399 68.8098 91.3405 67.7447C90.1277 66.9099 87.4791 65.7759 86.9882 64.3794L86.9121 64.3033C87.8033 64.1777 88.6817 63.9739 89.5371 63.6943C90.8207 63.3557 91.9941 63.4318 93.3197 63.0931C93.9261 62.9409 95.0234 62.5682 95.0234 62.5682V61.9775C94.3461 61.3055 93.8631 60.4025 93.1517 59.7699C91.2151 58.0796 89.1509 56.5412 86.9777 55.1683C85.8148 54.4202 84.3186 53.9345 83.0849 53.2967C82.6386 53.0709 81.8905 52.9606 81.628 52.5853C81.0124 51.6816 80.4975 50.7134 80.0924 49.6978C79.0082 47.6424 77.9582 45.3613 77.0237 43.1878C76.4718 41.7297 75.8346 40.3053 75.1154 38.9221C71.6453 33.0314 66.6395 28.1944 60.6332 24.9283C59.1174 24.1936 57.5055 23.6767 55.8452 23.3926C54.9081 23.3533 53.9736 23.2798 53.0391 23.243C52.4346 22.847 51.8592 22.4084 51.3171 21.9305C49.183 20.5839 43.6862 17.6649 42.1139 21.5184C41.1032 23.9518 43.6101 26.3458 44.4764 27.5821C45.2008 28.4538 45.839 29.3935 46.3821 30.3883C46.6446 31.0235 46.7181 31.7008 46.9832 32.3728C47.5303 34.0824 48.1799 35.7576 48.9284 37.3891C49.3297 38.1959 49.7921 38.9708 50.3117 39.707C50.6136 40.1218 51.136 40.3055 51.2489 40.9828C50.8346 41.8743 50.5449 42.8185 50.3879 43.7889C49.7341 45.8529 49.4935 48.0256 49.68 50.1826C49.8665 52.3397 50.4763 54.4388 51.4746 56.36C52.0731 57.2945 53.4959 59.3552 55.4121 58.5677C57.0947 57.8957 56.7246 55.7615 57.2076 53.8925C57.3205 53.441 57.2444 53.1444 57.4701 52.8425V53.21C57.4701 53.21 58.4256 55.31 58.8981 56.3836C60.1827 58.3375 61.7789 60.0675 63.6231 61.505C64.3581 62.1399 64.9511 62.9225 65.3635 63.8019V64.4791H66.2087C66.1907 64.1744 66.1064 63.8773 65.9618 63.6084C65.8172 63.3396 65.6157 63.1055 65.3714 62.9225C64.6795 62.2095 64.0457 61.4423 63.4761 60.6283C61.9275 58.4242 60.5623 56.0967 59.3942 53.6694C58.8089 52.4803 58.2996 51.1835 57.8192 49.9944C57.6014 49.5376 57.6013 48.8473 57.2365 48.6189C56.5607 49.4178 55.9744 50.2884 55.4882 51.215C54.8973 53.0872 54.554 55.0287 54.4671 56.99C54.3227 57.0294 54.3936 56.99 54.3227 57.0661C53.1572 56.7616 52.7477 55.4911 52.3172 54.4411C51.1839 51.1478 51.0696 47.5893 51.9891 44.2299C52.2516 43.4424 53.341 40.904 52.9 40.1401C52.6795 39.4104 51.9524 38.993 51.5507 38.4181C51.0406 37.6437 50.6014 36.8249 50.2382 35.9716C49.3641 33.8323 48.9257 31.4593 47.9781 29.3199C47.4546 28.2887 46.8452 27.3035 46.1564 26.3746C45.3951 25.4463 44.7236 24.4478 44.1509 23.3926C44.0118 23.1572 43.9266 22.8939 43.9011 22.6216C43.8757 22.3493 43.9108 22.0748 44.0039 21.8176C44.0244 21.6884 44.087 21.5695 44.1819 21.4794C44.2768 21.3892 44.3987 21.3328 44.5289 21.3189C45.0014 20.8989 46.3506 21.4318 46.8231 21.6628C48.0933 22.1623 49.3032 22.8034 50.4299 23.5738C50.9549 23.957 52.1414 24.9283 52.1414 24.9283H52.4957C53.7059 25.1908 55.0709 25.0018 56.2049 25.343C58.1226 25.9811 59.9526 26.8578 61.6517 27.9523C66.6656 31.144 70.742 35.6099 73.4642 40.8935C73.9184 41.7624 74.11 42.5578 74.5142 43.4634C75.3017 45.3219 76.294 47.2145 77.0867 49.0284C77.7842 50.8169 78.6862 52.5187 79.7747 54.0999C80.3417 54.8874 82.6124 55.31 83.6335 55.7274C84.5258 56.0324 85.4019 56.3829 86.2585 56.7774C87.5447 57.5649 88.8284 58.481 90.0411 59.3525C90.6449 59.8067 92.5375 60.7517 92.6504 61.5103" fill="#F3FDFF"/>
</g>
<defs>
<clipPath id="clip0_155_6">
<rect width="120" height="100" rx="5" fill="white"/>
</clipPath>
</defs>
</svg>
