<svg width="120" height="100" viewBox="0 0 120 100" fill="none" xmlns="http://www.w3.org/2000/svg">
<path d="M27.3436 90V78.8H29.4876L36.0956 86.864H35.0556V78.8H37.6156V90H35.4876L28.8636 81.936H29.9036V90H27.3436ZM44.1855 90.128C43.2682 90.128 42.4522 89.936 41.7375 89.552C41.0335 89.168 40.4735 88.6453 40.0575 87.984C39.6522 87.312 39.4495 86.5493 39.4495 85.696C39.4495 84.832 39.6522 84.0693 40.0575 83.408C40.4735 82.736 41.0335 82.2133 41.7375 81.84C42.4522 81.456 43.2682 81.264 44.1855 81.264C45.0922 81.264 45.9028 81.456 46.6175 81.84C47.3322 82.2133 47.8922 82.7307 48.2975 83.392C48.7028 84.0533 48.9055 84.8213 48.9055 85.696C48.9055 86.5493 48.7028 87.312 48.2975 87.984C47.8922 88.6453 47.3322 89.168 46.6175 89.552C45.9028 89.936 45.0922 90.128 44.1855 90.128ZM44.1855 88.08C44.6015 88.08 44.9748 87.984 45.3055 87.792C45.6362 87.6 45.8975 87.328 46.0895 86.976C46.2815 86.6133 46.3775 86.1867 46.3775 85.696C46.3775 85.1947 46.2815 84.768 46.0895 84.416C45.8975 84.064 45.6362 83.792 45.3055 83.6C44.9748 83.408 44.6015 83.312 44.1855 83.312C43.7695 83.312 43.3962 83.408 43.0655 83.6C42.7348 83.792 42.4682 84.064 42.2655 84.416C42.0735 84.768 41.9775 85.1947 41.9775 85.696C41.9775 86.1867 42.0735 86.6133 42.2655 86.976C42.4682 87.328 42.7348 87.6 43.0655 87.792C43.3962 87.984 43.7695 88.08 44.1855 88.08ZM54.2699 90.128C53.4592 90.128 52.7285 89.9467 52.0779 89.584C51.4272 89.2107 50.9099 88.6933 50.5259 88.032C50.1525 87.3707 49.9659 86.592 49.9659 85.696C49.9659 84.7893 50.1525 84.0053 50.5259 83.344C50.9099 82.6827 51.4272 82.1707 52.0779 81.808C52.7285 81.4453 53.4592 81.264 54.2699 81.264C54.9952 81.264 55.6299 81.424 56.1739 81.744C56.7179 82.064 57.1392 82.5493 57.4379 83.2C57.7365 83.8507 57.8859 84.6827 57.8859 85.696C57.8859 86.6987 57.7419 87.5307 57.4539 88.192C57.1659 88.8427 56.7499 89.328 56.2059 89.648C55.6725 89.968 55.0272 90.128 54.2699 90.128ZM54.7019 88.08C55.1072 88.08 55.4752 87.984 55.8059 87.792C56.1365 87.6 56.3979 87.328 56.5899 86.976C56.7925 86.6133 56.8939 86.1867 56.8939 85.696C56.8939 85.1947 56.7925 84.768 56.5899 84.416C56.3979 84.064 56.1365 83.792 55.8059 83.6C55.4752 83.408 55.1072 83.312 54.7019 83.312C54.2859 83.312 53.9125 83.408 53.5819 83.6C53.2512 83.792 52.9845 84.064 52.7819 84.416C52.5899 84.768 52.4939 85.1947 52.4939 85.696C52.4939 86.1867 52.5899 86.6133 52.7819 86.976C52.9845 87.328 53.2512 87.6 53.5819 87.792C53.9125 87.984 54.2859 88.08 54.7019 88.08ZM56.9579 90V88.24L57.0059 85.68L56.8459 83.136V78.128H59.3419V90H56.9579ZM65.924 90.128C64.9427 90.128 64.0787 89.936 63.332 89.552C62.596 89.168 62.0253 88.6453 61.62 87.984C61.2147 87.312 61.012 86.5493 61.012 85.696C61.012 84.832 61.2093 84.0693 61.604 83.408C62.0093 82.736 62.5587 82.2133 63.252 81.84C63.9453 81.456 64.7293 81.264 65.604 81.264C66.4467 81.264 67.204 81.4453 67.876 81.808C68.5587 82.16 69.0973 82.672 69.492 83.344C69.8867 84.0053 70.084 84.8 70.084 85.728C70.084 85.824 70.0787 85.936 70.068 86.064C70.0573 86.1813 70.0467 86.2933 70.036 86.4H63.044V84.944H68.724L67.764 85.376C67.764 84.928 67.6733 84.5387 67.492 84.208C67.3107 83.8773 67.06 83.6213 66.74 83.44C66.42 83.248 66.0467 83.152 65.62 83.152C65.1933 83.152 64.8147 83.248 64.484 83.44C64.164 83.6213 63.9133 83.8827 63.732 84.224C63.5507 84.5547 63.46 84.9493 63.46 85.408V85.792C63.46 86.2613 63.5613 86.6773 63.764 87.04C63.9773 87.392 64.2707 87.664 64.644 87.856C65.028 88.0373 65.476 88.128 65.988 88.128C66.4467 88.128 66.8467 88.0587 67.188 87.92C67.54 87.7813 67.86 87.5733 68.148 87.296L69.476 88.736C69.0813 89.184 68.5853 89.5307 67.988 89.776C67.3907 90.0107 66.7027 90.128 65.924 90.128ZM78.517 90.192C77.7597 90.192 77.061 90.0533 76.421 89.776C75.7917 89.488 75.2743 89.0827 74.869 88.56L76.309 86.832C76.6183 87.2373 76.9437 87.5467 77.285 87.76C77.6263 87.9627 77.9943 88.064 78.389 88.064C79.445 88.064 79.973 87.4453 79.973 86.208V80.88H76.037V78.8H82.549V86.064C82.549 87.4507 82.2077 88.4853 81.525 89.168C80.8423 89.8507 79.8397 90.192 78.517 90.192ZM88.7893 90.192C87.8933 90.192 87.0346 90.0747 86.2133 89.84C85.3919 89.5947 84.7306 89.28 84.2293 88.896L85.1093 86.944C85.5893 87.2853 86.1546 87.568 86.8053 87.792C87.4666 88.0053 88.1333 88.112 88.8053 88.112C89.3173 88.112 89.7279 88.064 90.0373 87.968C90.3573 87.8613 90.5919 87.7173 90.7413 87.536C90.8906 87.3547 90.9653 87.1467 90.9653 86.912C90.9653 86.6133 90.8479 86.3787 90.6133 86.208C90.3786 86.0267 90.0693 85.8827 89.6853 85.776C89.3013 85.6587 88.8746 85.552 88.4053 85.456C87.9466 85.3493 87.4826 85.2213 87.0133 85.072C86.5546 84.9227 86.1333 84.7307 85.7493 84.496C85.3653 84.2613 85.0506 83.952 84.8053 83.568C84.5706 83.184 84.4533 82.6933 84.4533 82.096C84.4533 81.456 84.6239 80.8747 84.9653 80.352C85.3173 79.8187 85.8399 79.3973 86.5333 79.088C87.2373 78.768 88.1173 78.608 89.1733 78.608C89.8773 78.608 90.5706 78.6933 91.2533 78.864C91.9359 79.024 92.5386 79.2693 93.0613 79.6L92.2613 81.568C91.7386 81.2693 91.2159 81.0507 90.6933 80.912C90.1706 80.7627 89.6586 80.688 89.1573 80.688C88.6559 80.688 88.2453 80.7467 87.9253 80.864C87.6053 80.9813 87.3759 81.136 87.2373 81.328C87.0986 81.5093 87.0293 81.7227 87.0293 81.968C87.0293 82.256 87.1466 82.4907 87.3813 82.672C87.6159 82.8427 87.9253 82.9813 88.3093 83.088C88.6933 83.1947 89.1146 83.3013 89.5733 83.408C90.0426 83.5147 90.5066 83.6373 90.9653 83.776C91.4346 83.9147 91.8613 84.1013 92.2453 84.336C92.6293 84.5707 92.9386 84.88 93.1733 85.264C93.4186 85.648 93.5413 86.1333 93.5413 86.72C93.5413 87.3493 93.3653 87.9253 93.0133 88.448C92.6613 88.9707 92.1333 89.392 91.4293 89.712C90.7359 90.032 89.8559 90.192 88.7893 90.192Z" fill="black"/>
<path d="M62.5648 10.0285C61.0122 9.15523 58.9878 9.15914 57.4338 10.0285C49.6507 14.3237 41.8674 18.6203 34.0828 22.9136C32.5681 23.7105 31.5464 25.3371 31.5627 27.0255V52.978C31.5518 54.6993 32.6261 56.3417 34.1799 57.1277C36.4159 58.3173 38.5883 59.6276 40.8647 60.7379C43.4942 62.0301 46.7841 62.3158 49.4457 60.9683C51.6063 59.8516 52.566 57.3677 52.5632 55.085C52.5807 46.5201 52.566 37.9549 52.5699 29.3898C52.6213 29.0091 52.3354 28.6023 51.9202 28.6114C50.9256 28.5957 49.9296 28.6023 48.935 28.6088C48.5592 28.5734 48.1923 28.8855 48.2207 29.2633C48.2074 37.7731 48.2234 46.2856 48.2127 54.7967C48.2343 55.974 47.4389 57.1054 46.3043 57.5031C43.6839 58.4216 36.2043 53.5651 36.2043 53.5651C35.9298 53.438 35.7555 53.1403 35.7824 52.8446C35.7824 44.2823 35.7838 35.7197 35.7824 27.1587C35.7447 26.8136 35.9574 26.5027 36.2744 26.3618C44.032 22.0918 51.7855 17.8112 59.543 13.5386C59.8125 13.3588 60.1881 13.3593 60.457 13.5399C68.2145 17.8112 75.9694 22.0879 83.7282 26.3581C84.0463 26.4988 84.25 26.8148 84.2176 27.1587C84.2163 35.7197 84.2202 44.2823 84.215 52.8435C84.2379 53.1464 84.0813 53.44 83.7985 53.573C76.1133 57.8198 68.3407 61.9297 60.7252 66.2999C60.3929 66.4904 60.0164 66.7063 59.6441 66.4963C57.6414 65.3886 55.6631 64.2377 53.667 63.1193C53.45 62.9838 53.1737 62.9257 52.9473 63.0773C52.0524 63.5489 51.2106 63.9308 50.1829 64.3377C48.7396 64.9091 48.9702 65.1427 50.272 65.9011C52.6062 67.2221 54.9445 68.5379 57.2787 69.8603C58.8155 70.8193 60.8802 70.8875 62.4664 70.0013C70.2508 65.7114 78.0329 61.4165 85.8188 57.1266C87.3685 56.3363 88.4482 54.7004 88.4373 52.9778V27.0255C88.4524 25.3714 87.4697 23.7737 86.0006 22.965C78.1904 18.6488 70.3764 14.342 62.5648 10.0285Z" fill="#8CC84B"/>
<path d="M74.3104 29.5135C71.2551 27.879 67.6203 27.792 64.2251 28.0057C61.7723 28.2481 59.1925 28.9249 57.4056 30.6832C55.5727 32.4507 55.1737 35.3049 56.0443 37.6123C56.6682 39.2429 58.2386 40.3032 59.8626 40.864C61.9545 41.6025 64.1516 41.8309 66.3494 42.0593C68.354 42.2675 70.3593 42.476 72.286 43.0717C73.0731 43.3324 73.9897 43.7314 74.2307 44.5878C74.4534 45.6019 74.2093 46.7808 73.3859 47.4854C70.7705 49.5554 63.4954 49.2382 60.9113 47.609C59.8665 46.9149 59.4163 45.6862 59.2332 44.5152C59.2129 44.1503 58.9191 43.8156 58.5229 43.8434C57.5309 43.8316 56.5389 43.8342 55.5469 43.8421C55.2008 43.813 54.8409 44.0593 54.8219 44.4126C54.618 49.7757 59.5436 52.1137 64.1647 52.6284C66.8048 52.88 69.5029 52.8655 72.1027 52.299C74.057 51.854 76.0166 51.0346 77.3619 49.5294C79.0209 47.7 79.3471 44.9763 78.6031 42.6976C78.0344 40.9973 76.4088 39.9066 74.7472 39.3455C72.4875 38.5707 69.8096 38.1542 67.7629 37.9593C64.7882 37.676 61.2532 37.7917 60.4112 35.8369C60.0754 34.8134 60.3611 33.5425 61.3017 32.9129C63.7904 31.2248 68.8556 31.449 71.4329 32.7101C72.6164 33.3027 73.3021 34.5199 73.5852 35.7486C73.6377 36.1095 73.8805 36.4862 74.2983 36.4704C75.2836 36.4901 76.2688 36.4757 77.2539 36.477C77.5923 36.5006 77.9628 36.3097 78.0289 35.9632C77.9871 33.395 76.6757 30.7661 74.3104 29.5135Z" fill="#8CC84B"/>
</svg>
