<svg width="120" height="100" viewBox="0 0 120 100" fill="none" xmlns="http://www.w3.org/2000/svg">
<path d="M26.4374 90V78.8H31.2854C32.288 78.8 33.152 78.9653 33.8774 79.296C34.6027 79.616 35.1627 80.08 35.5574 80.688C35.952 81.296 36.1494 82.0213 36.1494 82.864C36.1494 83.696 35.952 84.416 35.5574 85.024C35.1627 85.6213 34.6027 86.08 33.8774 86.4C33.152 86.72 32.288 86.88 31.2854 86.88H27.8774L29.0294 85.744V90H26.4374ZM33.5574 90L30.7574 85.936H33.5254L36.3574 90H33.5574ZM29.0294 86.032L27.8774 84.816H31.1414C31.9414 84.816 32.5387 84.6453 32.9334 84.304C33.328 83.952 33.5254 83.472 33.5254 82.864C33.5254 82.2453 33.328 81.7653 32.9334 81.424C32.5387 81.0827 31.9414 80.912 31.1414 80.912H27.8774L29.0294 79.68V86.032ZM42.299 90.128C41.3177 90.128 40.4537 89.936 39.707 89.552C38.971 89.168 38.4003 88.6453 37.995 87.984C37.5897 87.312 37.387 86.5493 37.387 85.696C37.387 84.832 37.5843 84.0693 37.979 83.408C38.3843 82.736 38.9337 82.2133 39.627 81.84C40.3203 81.456 41.1043 81.264 41.979 81.264C42.8217 81.264 43.579 81.4453 44.251 81.808C44.9337 82.16 45.4723 82.672 45.867 83.344C46.2617 84.0053 46.459 84.8 46.459 85.728C46.459 85.824 46.4537 85.936 46.443 86.064C46.4323 86.1813 46.4217 86.2933 46.411 86.4H39.419V84.944H45.099L44.139 85.376C44.139 84.928 44.0483 84.5387 43.867 84.208C43.6857 83.8773 43.435 83.6213 43.115 83.44C42.795 83.248 42.4217 83.152 41.995 83.152C41.5683 83.152 41.1897 83.248 40.859 83.44C40.539 83.6213 40.2883 83.8827 40.107 84.224C39.9257 84.5547 39.835 84.9493 39.835 85.408V85.792C39.835 86.2613 39.9363 86.6773 40.139 87.04C40.3523 87.392 40.6457 87.664 41.019 87.856C41.403 88.0373 41.851 88.128 42.363 88.128C42.8217 88.128 43.2217 88.0587 43.563 87.92C43.915 87.7813 44.235 87.5733 44.523 87.296L45.851 88.736C45.4563 89.184 44.9603 89.5307 44.363 89.776C43.7657 90.0107 43.0777 90.128 42.299 90.128ZM53.1664 90V88.32L53.0064 87.952V84.944C53.0064 84.4107 52.841 83.9947 52.5104 83.696C52.1904 83.3973 51.6944 83.248 51.0224 83.248C50.5637 83.248 50.1104 83.3227 49.6624 83.472C49.225 83.6107 48.8517 83.8027 48.5424 84.048L47.6464 82.304C48.1157 81.9733 48.681 81.7173 49.3424 81.536C50.0037 81.3547 50.6757 81.264 51.3584 81.264C52.6704 81.264 53.689 81.5733 54.4144 82.192C55.1397 82.8107 55.5024 83.776 55.5024 85.088V90H53.1664ZM50.5424 90.128C49.8704 90.128 49.2944 90.016 48.8144 89.792C48.3344 89.5573 47.9664 89.2427 47.7104 88.848C47.4544 88.4533 47.3264 88.0107 47.3264 87.52C47.3264 87.008 47.449 86.56 47.6944 86.176C47.9504 85.792 48.3504 85.4933 48.8944 85.28C49.4384 85.056 50.1477 84.944 51.0224 84.944H53.3104V86.4H51.2944C50.7077 86.4 50.3024 86.496 50.0784 86.688C49.865 86.88 49.7584 87.12 49.7584 87.408C49.7584 87.728 49.881 87.984 50.1264 88.176C50.3824 88.3573 50.729 88.448 51.1664 88.448C51.5824 88.448 51.9557 88.352 52.2864 88.16C52.617 87.9573 52.857 87.664 53.0064 87.28L53.3904 88.432C53.209 88.9867 52.8784 89.408 52.3984 89.696C51.9184 89.984 51.2997 90.128 50.5424 90.128ZM61.9839 90.128C61.0559 90.128 60.2292 89.9413 59.5039 89.568C58.7785 89.184 58.2079 88.656 57.7919 87.984C57.3865 87.312 57.1839 86.5493 57.1839 85.696C57.1839 84.832 57.3865 84.0693 57.7919 83.408C58.2079 82.736 58.7785 82.2133 59.5039 81.84C60.2292 81.456 61.0559 81.264 61.9839 81.264C62.8905 81.264 63.6799 81.456 64.3519 81.84C65.0239 82.2133 65.5199 82.752 65.8399 83.456L63.9039 84.496C63.6799 84.0907 63.3972 83.792 63.0559 83.6C62.7252 83.408 62.3625 83.312 61.9679 83.312C61.5412 83.312 61.1572 83.408 60.8159 83.6C60.4745 83.792 60.2025 84.064 59.9999 84.416C59.8079 84.768 59.7119 85.1947 59.7119 85.696C59.7119 86.1973 59.8079 86.624 59.9999 86.976C60.2025 87.328 60.4745 87.6 60.8159 87.792C61.1572 87.984 61.5412 88.08 61.9679 88.08C62.3625 88.08 62.7252 87.9893 63.0559 87.808C63.3972 87.616 63.6799 87.312 63.9039 86.896L65.8399 87.952C65.5199 88.6453 65.0239 89.184 64.3519 89.568C63.6799 89.9413 62.8905 90.128 61.9839 90.128ZM70.922 90.128C69.9087 90.128 69.1193 89.872 68.554 89.36C67.9887 88.8373 67.706 88.064 67.706 87.04V79.488H70.202V87.008C70.202 87.3707 70.298 87.6533 70.49 87.856C70.682 88.048 70.9433 88.144 71.274 88.144C71.6687 88.144 72.0047 88.0373 72.282 87.824L72.954 89.584C72.698 89.7653 72.3887 89.904 72.026 90C71.674 90.0853 71.306 90.128 70.922 90.128ZM66.378 83.504V81.584H72.346V83.504H66.378ZM81.1264 90.192C80.369 90.192 79.6704 90.0533 79.0304 89.776C78.401 89.488 77.8837 89.0827 77.4784 88.56L78.9184 86.832C79.2277 87.2373 79.553 87.5467 79.8944 87.76C80.2357 87.9627 80.6037 88.064 80.9984 88.064C82.0544 88.064 82.5824 87.4453 82.5824 86.208V80.88H78.6464V78.8H85.1584V86.064C85.1584 87.4507 84.817 88.4853 84.1344 89.168C83.4517 89.8507 82.449 90.192 81.1264 90.192ZM90.4386 90.128C89.7026 90.128 88.9933 90.0427 88.3106 89.872C87.6386 89.6907 87.1053 89.4667 86.7106 89.2L87.5426 87.408C87.9373 87.6533 88.4013 87.856 88.9346 88.016C89.4786 88.1653 90.012 88.24 90.5346 88.24C91.1106 88.24 91.516 88.1707 91.7506 88.032C91.996 87.8933 92.1186 87.7013 92.1186 87.456C92.1186 87.2533 92.0226 87.104 91.8306 87.008C91.6493 86.9013 91.404 86.8213 91.0946 86.768C90.7853 86.7147 90.444 86.6613 90.0706 86.608C89.708 86.5547 89.34 86.4853 88.9666 86.4C88.5933 86.304 88.252 86.1653 87.9426 85.984C87.6333 85.8027 87.3826 85.5573 87.1906 85.248C87.0093 84.9387 86.9186 84.5387 86.9186 84.048C86.9186 83.504 87.0733 83.024 87.3826 82.608C87.7026 82.192 88.1613 81.8667 88.7586 81.632C89.356 81.3867 90.0706 81.264 90.9026 81.264C91.4893 81.264 92.0866 81.328 92.6946 81.456C93.3026 81.584 93.8093 81.7707 94.2146 82.016L93.3826 83.792C92.9666 83.5467 92.5453 83.3813 92.1186 83.296C91.7026 83.2 91.2973 83.152 90.9026 83.152C90.348 83.152 89.9426 83.2267 89.6866 83.376C89.4306 83.5253 89.3026 83.7173 89.3026 83.952C89.3026 84.1653 89.3933 84.3253 89.5746 84.432C89.7666 84.5387 90.0173 84.624 90.3266 84.688C90.636 84.752 90.972 84.8107 91.3346 84.864C91.708 84.9067 92.0813 84.976 92.4546 85.072C92.828 85.168 93.164 85.3067 93.4626 85.488C93.772 85.6587 94.0226 85.8987 94.2146 86.208C94.4066 86.5067 94.5026 86.9013 94.5026 87.392C94.5026 87.9253 94.3426 88.4 94.0226 88.816C93.7026 89.2213 93.2386 89.5413 92.6306 89.776C92.0333 90.0107 91.3026 90.128 90.4386 90.128Z" fill="black"/>
<path d="M65.8601 39.9473C65.8601 36.8096 63.2366 34.2655 60 34.2655C56.7638 34.2655 54.1399 36.8096 54.1399 39.9473C54.1399 43.0855 56.7638 45.6293 60 45.6293C63.2366 45.6293 65.8601 43.0855 65.8601 39.9473Z" fill="#53C1DE"/>
<path fill-rule="evenodd" clip-rule="evenodd" d="M79.0321 29.3987C80.2696 24.523 81.8251 15.4814 76.3415 12.416C70.8835 9.36395 63.7809 15.2122 60.0304 18.7226C56.2909 15.2472 48.9888 9.42393 43.5098 12.4991C38.0539 15.5613 39.7364 24.453 41.0013 29.3593C35.9119 30.7609 27.1875 33.7796 27.1875 39.9473C27.1875 46.0974 35.9029 49.3817 40.9621 50.782C39.6925 55.7154 38.0943 64.4801 43.5572 67.5356C49.0566 70.6101 56.3359 64.9255 60.1212 61.3767C63.8957 64.9077 70.9301 70.6296 76.3892 67.5656C81.8654 64.4919 80.4391 55.5715 79.1741 50.6367C84.0785 49.2334 92.8125 46.0207 92.8125 39.9473C92.8125 33.8389 84.0413 30.7957 79.0321 29.3987ZM78.4104 48.0216C77.5798 45.4722 76.4588 42.7613 75.0874 39.9608C76.3964 37.2265 77.474 34.5505 78.2814 32.0176C81.9535 33.0499 90.0092 35.4091 90.0092 39.9473C90.0092 44.5281 82.2788 46.9097 78.4104 48.0216ZM74.9844 65.2131C70.9113 67.4991 64.8608 62.0272 62.0733 59.427C63.9226 57.4659 65.7706 55.1861 67.5742 52.6545C70.747 52.3817 73.7441 51.9354 76.4622 51.3262C77.3526 54.8168 79.0754 62.9169 74.9844 65.2131ZM44.9579 65.1805C40.8844 62.9031 42.7463 55.0819 43.6803 51.4478C46.3682 52.0245 49.3438 52.4392 52.524 52.6892C54.3394 55.1664 56.241 57.4433 58.1573 59.4375C55.7897 61.658 49.0505 67.4684 44.9579 65.1805ZM29.9908 39.9473C29.9908 35.3494 37.9983 33.0072 41.7542 31.9776C42.5755 34.5673 43.6527 37.2752 44.9527 40.0136C43.6359 42.7926 42.5432 45.5433 41.7144 48.1637C38.1331 47.1697 29.9908 44.548 29.9908 39.9473ZM44.9143 14.8515C49.0045 12.556 55.3509 18.1465 58.066 20.6628C56.1596 22.6477 54.2755 24.9076 52.4757 27.3705C49.3893 27.6478 46.4348 28.0932 43.7186 28.69C42.6996 24.7328 40.8286 17.1445 44.9143 14.8515ZM69.5797 30.3249C71.6736 30.5811 73.6798 30.9219 75.5634 31.3388C74.9979 33.0962 74.2931 34.934 73.463 36.8178C72.2596 34.6041 70.9679 32.4347 69.5797 30.3249ZM60.0313 22.6052C61.3243 23.9634 62.6193 25.48 63.8933 27.1255C61.3092 27.0069 58.721 27.0065 56.1369 27.1237C57.412 25.4935 58.7181 23.9791 60.0313 22.6052ZM46.5611 36.8159C45.7447 34.9386 45.0462 33.0927 44.4758 31.3102C46.3482 30.9039 48.345 30.5719 50.4253 30.3199C49.0332 32.4251 47.7437 34.5936 46.5611 36.8159ZM50.485 49.7687C48.336 49.5362 46.309 49.221 44.4372 48.8259C45.0166 47.012 45.7305 45.1264 46.5643 43.2086C47.7631 45.4541 49.0723 47.6436 50.485 49.7687ZM60.1089 57.4814C58.7803 56.0912 57.4548 54.5537 56.1605 52.8999C58.7592 52.9988 61.363 52.999 63.9616 52.8866C62.6836 54.5705 61.3932 56.1103 60.1089 57.4814ZM73.4897 43.1111C74.3668 45.0496 75.1062 46.925 75.6936 48.7082C73.7907 49.1293 71.7364 49.4684 69.5718 49.7202C70.9703 47.5703 72.2826 45.3672 73.4897 43.1111ZM66.0097 50.0496C62.0346 50.325 58.0347 50.3219 54.0583 50.0721C51.7988 46.872 49.7874 43.5066 48.0512 40.0127C49.7791 36.526 51.7759 33.1671 54.0246 29.9721C58.0039 29.6805 62.0077 29.6796 65.987 29.9738C68.2165 33.1687 70.2102 36.5188 71.9781 39.974C70.2312 43.4589 68.2239 46.8246 66.0097 50.0496ZM74.9413 14.7707C79.0326 17.0587 77.2115 25.1846 76.3177 28.7182C73.5951 28.109 70.6385 27.6557 67.5432 27.374C65.7398 24.8845 63.8714 22.6207 61.9959 20.6614C64.7458 18.0909 70.8896 12.5051 74.9413 14.7707Z" fill="#53C1DE"/>
</svg>
