<svg width="120" height="100" viewBox="0 0 120 100" fill="none" xmlns="http://www.w3.org/2000/svg">
<path d="M9.86675 92V82.912H6.28275V80.8H16.0428V82.912H12.4588V92H9.86675ZM22.1039 92V90.32L21.9439 89.952V86.944C21.9439 86.4107 21.7785 85.9947 21.4479 85.696C21.1279 85.3973 20.6319 85.248 19.9599 85.248C19.5012 85.248 19.0479 85.3227 18.5999 85.472C18.1625 85.6107 17.7892 85.8027 17.4799 86.048L16.5839 84.304C17.0532 83.9733 17.6185 83.7173 18.2799 83.536C18.9412 83.3547 19.6132 83.264 20.2959 83.264C21.6079 83.264 22.6265 83.5733 23.3519 84.192C24.0772 84.8107 24.4399 85.776 24.4399 87.088V92H22.1039ZM19.4799 92.128C18.8079 92.128 18.2319 92.016 17.7519 91.792C17.2719 91.5573 16.9039 91.2427 16.6479 90.848C16.3919 90.4533 16.2639 90.0107 16.2639 89.52C16.2639 89.008 16.3865 88.56 16.6319 88.176C16.8879 87.792 17.2879 87.4933 17.8319 87.28C18.3759 87.056 19.0852 86.944 19.9599 86.944H22.2479V88.4H20.2319C19.6452 88.4 19.2399 88.496 19.0159 88.688C18.8025 88.88 18.6959 89.12 18.6959 89.408C18.6959 89.728 18.8185 89.984 19.0639 90.176C19.3199 90.3573 19.6665 90.448 20.1039 90.448C20.5199 90.448 20.8932 90.352 21.2239 90.16C21.5545 89.9573 21.7945 89.664 21.9439 89.28L22.3279 90.432C22.1465 90.9867 21.8159 91.408 21.3359 91.696C20.8559 91.984 20.2372 92.128 19.4799 92.128ZM26.6989 92V83.392H29.1949V92H26.6989ZM27.9469 82.192C27.4882 82.192 27.1149 82.0587 26.8269 81.792C26.5389 81.5253 26.3949 81.1947 26.3949 80.8C26.3949 80.4053 26.5389 80.0747 26.8269 79.808C27.1149 79.5413 27.4882 79.408 27.9469 79.408C28.4055 79.408 28.7789 79.536 29.0669 79.792C29.3549 80.0373 29.4989 80.3573 29.4989 80.752C29.4989 81.168 29.3549 81.5147 29.0669 81.792C28.7895 82.0587 28.4162 82.192 27.9469 82.192ZM31.5114 92V80.128H34.0074V92H31.5114ZM38.2919 92L35.1879 83.392H37.5399L40.1159 90.8H38.9959L41.6839 83.392H43.7959L46.4039 90.8H45.2839L47.9399 83.392H50.1479L47.0279 92H44.6119L42.3239 85.648H43.0599L40.6919 92H38.2919ZM51.3083 92V83.392H53.8043V92H51.3083ZM52.5563 82.192C52.0976 82.192 51.7243 82.0587 51.4363 81.792C51.1483 81.5253 51.0043 81.1947 51.0043 80.8C51.0043 80.4053 51.1483 80.0747 51.4363 79.808C51.7243 79.5413 52.0976 79.408 52.5563 79.408C53.0149 79.408 53.3883 79.536 53.6763 79.792C53.9643 80.0373 54.1083 80.3573 54.1083 80.752C54.1083 81.168 53.9643 81.5147 53.6763 81.792C53.3989 82.0587 53.0256 82.192 52.5563 82.192ZM61.3528 83.264C62.0354 83.264 62.6434 83.4027 63.1768 83.68C63.7208 83.9467 64.1474 84.3627 64.4568 84.928C64.7661 85.4827 64.9208 86.1973 64.9208 87.072V92H62.4248V87.456C62.4248 86.7627 62.2701 86.2507 61.9608 85.92C61.6621 85.5893 61.2354 85.424 60.6808 85.424C60.2861 85.424 59.9288 85.5093 59.6088 85.68C59.2994 85.84 59.0541 86.0907 58.8728 86.432C58.7021 86.7733 58.6168 87.2107 58.6168 87.744V92H56.1208V83.392H58.5048V85.776L58.0568 85.056C58.3661 84.48 58.8088 84.0373 59.3848 83.728C59.9608 83.4187 60.6168 83.264 61.3528 83.264ZM70.9418 92.128C70.1311 92.128 69.4004 91.9467 68.7498 91.584C68.0991 91.2107 67.5818 90.6933 67.1978 90.032C66.8244 89.3707 66.6378 88.592 66.6378 87.696C66.6378 86.7893 66.8244 86.0053 67.1978 85.344C67.5818 84.6827 68.0991 84.1707 68.7498 83.808C69.4004 83.4453 70.1311 83.264 70.9418 83.264C71.6671 83.264 72.3018 83.424 72.8458 83.744C73.3898 84.064 73.8111 84.5493 74.1098 85.2C74.4084 85.8507 74.5578 86.6827 74.5578 87.696C74.5578 88.6987 74.4138 89.5307 74.1258 90.192C73.8378 90.8427 73.4218 91.328 72.8778 91.648C72.3444 91.968 71.6991 92.128 70.9418 92.128ZM71.3738 90.08C71.7791 90.08 72.1471 89.984 72.4778 89.792C72.8084 89.6 73.0698 89.328 73.2618 88.976C73.4644 88.6133 73.5658 88.1867 73.5658 87.696C73.5658 87.1947 73.4644 86.768 73.2618 86.416C73.0698 86.064 72.8084 85.792 72.4778 85.6C72.1471 85.408 71.7791 85.312 71.3738 85.312C70.9578 85.312 70.5844 85.408 70.2538 85.6C69.9231 85.792 69.6564 86.064 69.4538 86.416C69.2618 86.768 69.1658 87.1947 69.1658 87.696C69.1658 88.1867 69.2618 88.6133 69.4538 88.976C69.6564 89.328 69.9231 89.6 70.2538 89.792C70.5844 89.984 70.9578 90.08 71.3738 90.08ZM73.6298 92V90.24L73.6778 87.68L73.5178 85.136V80.128H76.0138V92H73.6298ZM88.3911 92.192C87.5271 92.192 86.7218 92.0533 85.9751 91.776C85.2391 91.488 84.5991 91.0827 84.0551 90.56C83.5111 90.0373 83.0845 89.424 82.7751 88.72C82.4765 88.016 82.3271 87.2427 82.3271 86.4C82.3271 85.5573 82.4765 84.784 82.7751 84.08C83.0845 83.376 83.5111 82.7627 84.0551 82.24C84.6098 81.7173 85.2551 81.3173 85.9911 81.04C86.7271 80.752 87.5325 80.608 88.4071 80.608C89.3778 80.608 90.2525 80.7787 91.0311 81.12C91.8205 81.4507 92.4818 81.9413 93.0151 82.592L91.3511 84.128C90.9671 83.6907 90.5405 83.3653 90.0711 83.152C89.6018 82.928 89.0898 82.816 88.5351 82.816C88.0125 82.816 87.5325 82.9013 87.0951 83.072C86.6578 83.2427 86.2791 83.488 85.9591 83.808C85.6391 84.128 85.3885 84.5067 85.2071 84.944C85.0365 85.3813 84.9511 85.8667 84.9511 86.4C84.9511 86.9333 85.0365 87.4187 85.2071 87.856C85.3885 88.2933 85.6391 88.672 85.9591 88.992C86.2791 89.312 86.6578 89.5573 87.0951 89.728C87.5325 89.8987 88.0125 89.984 88.5351 89.984C89.0898 89.984 89.6018 89.8773 90.0711 89.664C90.5405 89.44 90.9671 89.104 91.3511 88.656L93.0151 90.192C92.4818 90.8427 91.8205 91.3387 91.0311 91.68C90.2525 92.0213 89.3725 92.192 88.3911 92.192ZM98.383 92.192C97.487 92.192 96.6283 92.0747 95.807 91.84C94.9857 91.5947 94.3243 91.28 93.823 90.896L94.703 88.944C95.183 89.2853 95.7483 89.568 96.399 89.792C97.0603 90.0053 97.727 90.112 98.399 90.112C98.911 90.112 99.3217 90.064 99.631 89.968C99.951 89.8613 100.186 89.7173 100.335 89.536C100.484 89.3547 100.559 89.1467 100.559 88.912C100.559 88.6133 100.442 88.3787 100.207 88.208C99.9723 88.0267 99.663 87.8827 99.279 87.776C98.895 87.6587 98.4683 87.552 97.999 87.456C97.5403 87.3493 97.0763 87.2213 96.607 87.072C96.1483 86.9227 95.727 86.7307 95.343 86.496C94.959 86.2613 94.6443 85.952 94.399 85.568C94.1643 85.184 94.047 84.6933 94.047 84.096C94.047 83.456 94.2177 82.8747 94.559 82.352C94.911 81.8187 95.4337 81.3973 96.127 81.088C96.831 80.768 97.711 80.608 98.767 80.608C99.471 80.608 100.164 80.6933 100.847 80.864C101.53 81.024 102.132 81.2693 102.655 81.6L101.855 83.568C101.332 83.2693 100.81 83.0507 100.287 82.912C99.7643 82.7627 99.2523 82.688 98.751 82.688C98.2497 82.688 97.839 82.7467 97.519 82.864C97.199 82.9813 96.9697 83.136 96.831 83.328C96.6923 83.5093 96.623 83.7227 96.623 83.968C96.623 84.256 96.7403 84.4907 96.975 84.672C97.2097 84.8427 97.519 84.9813 97.903 85.088C98.287 85.1947 98.7083 85.3013 99.167 85.408C99.6363 85.5147 100.1 85.6373 100.559 85.776C101.028 85.9147 101.455 86.1013 101.839 86.336C102.223 86.5707 102.532 86.88 102.767 87.264C103.012 87.648 103.135 88.1333 103.135 88.72C103.135 89.3493 102.959 89.9253 102.607 90.448C102.255 90.9707 101.727 91.392 101.023 91.712C100.33 92.032 99.4497 92.192 98.383 92.192ZM108.586 92.192C107.69 92.192 106.831 92.0747 106.01 91.84C105.189 91.5947 104.527 91.28 104.026 90.896L104.906 88.944C105.386 89.2853 105.951 89.568 106.602 89.792C107.263 90.0053 107.93 90.112 108.602 90.112C109.114 90.112 109.525 90.064 109.834 89.968C110.154 89.8613 110.389 89.7173 110.538 89.536C110.687 89.3547 110.762 89.1467 110.762 88.912C110.762 88.6133 110.645 88.3787 110.41 88.208C110.175 88.0267 109.866 87.8827 109.482 87.776C109.098 87.6587 108.671 87.552 108.202 87.456C107.743 87.3493 107.279 87.2213 106.81 87.072C106.351 86.9227 105.93 86.7307 105.546 86.496C105.162 86.2613 104.847 85.952 104.602 85.568C104.367 85.184 104.25 84.6933 104.25 84.096C104.25 83.456 104.421 82.8747 104.762 82.352C105.114 81.8187 105.637 81.3973 106.33 81.088C107.034 80.768 107.914 80.608 108.97 80.608C109.674 80.608 110.367 80.6933 111.05 80.864C111.733 81.024 112.335 81.2693 112.858 81.6L112.058 83.568C111.535 83.2693 111.013 83.0507 110.49 82.912C109.967 82.7627 109.455 82.688 108.954 82.688C108.453 82.688 108.042 82.7467 107.722 82.864C107.402 82.9813 107.173 83.136 107.034 83.328C106.895 83.5093 106.826 83.7227 106.826 83.968C106.826 84.256 106.943 84.4907 107.178 84.672C107.413 84.8427 107.722 84.9813 108.106 85.088C108.49 85.1947 108.911 85.3013 109.37 85.408C109.839 85.5147 110.303 85.6373 110.762 85.776C111.231 85.9147 111.658 86.1013 112.042 86.336C112.426 86.5707 112.735 86.88 112.97 87.264C113.215 87.648 113.338 88.1333 113.338 88.72C113.338 89.3493 113.162 89.9253 112.81 90.448C112.458 90.9707 111.93 91.392 111.226 91.712C110.533 92.032 109.653 92.192 108.586 92.192Z" fill="black"/>
<path d="M44.6875 36.9687C46.7292 28.8021 51.8333 24.7188 60 24.7188C72.25 24.7188 73.7812 33.9062 79.9062 35.4375C83.9896 36.4583 87.5625 34.9271 90.625 30.8437C88.5833 39.0104 83.4792 43.0937 75.3125 43.0937C63.0625 43.0937 61.5312 33.9062 55.4062 32.375C51.3229 31.3542 47.75 32.8854 44.6875 36.9687ZM29.375 55.3437C31.4167 47.1771 36.5208 43.0937 44.6875 43.0937C56.9375 43.0937 58.4688 52.2812 64.5938 53.8125C68.6771 54.8333 72.25 53.3021 75.3125 49.2187C73.2708 57.3854 68.1667 61.4687 60 61.4687C47.75 61.4687 46.2188 52.2812 40.0938 50.75C36.0104 49.7292 32.4375 51.2604 29.375 55.3437Z" fill="#44A8B3"/>
</svg>
