<svg width="120" height="100" viewBox="0 0 120 100" fill="none" xmlns="http://www.w3.org/2000/svg">
<path d="M51.6489 90.192C50.7849 90.192 49.9796 90.0533 49.2329 89.776C48.4969 89.488 47.8569 89.0827 47.3129 88.56C46.7689 88.0373 46.3423 87.424 46.0329 86.72C45.7343 86.016 45.5849 85.2427 45.5849 84.4C45.5849 83.5573 45.7343 82.784 46.0329 82.08C46.3423 81.376 46.7689 80.7627 47.3129 80.24C47.8676 79.7173 48.5129 79.3173 49.2489 79.04C49.9849 78.752 50.7903 78.608 51.6649 78.608C52.6356 78.608 53.5103 78.7787 54.2889 79.12C55.0783 79.4507 55.7396 79.9413 56.2729 80.592L54.6089 82.128C54.2249 81.6907 53.7983 81.3653 53.3289 81.152C52.8596 80.928 52.3476 80.816 51.7929 80.816C51.2703 80.816 50.7903 80.9013 50.3529 81.072C49.9156 81.2427 49.5369 81.488 49.2169 81.808C48.8969 82.128 48.6463 82.5067 48.4649 82.944C48.2943 83.3813 48.2089 83.8667 48.2089 84.4C48.2089 84.9333 48.2943 85.4187 48.4649 85.856C48.6463 86.2933 48.8969 86.672 49.2169 86.992C49.5369 87.312 49.9156 87.5573 50.3529 87.728C50.7903 87.8987 51.2703 87.984 51.7929 87.984C52.3476 87.984 52.8596 87.8773 53.3289 87.664C53.7983 87.44 54.2249 87.104 54.6089 86.656L56.2729 88.192C55.7396 88.8427 55.0783 89.3387 54.2889 89.68C53.5103 90.0213 52.6303 90.192 51.6489 90.192ZM61.6408 90.192C60.7448 90.192 59.8861 90.0747 59.0648 89.84C58.2435 89.5947 57.5821 89.28 57.0808 88.896L57.9608 86.944C58.4408 87.2853 59.0061 87.568 59.6568 87.792C60.3181 88.0053 60.9848 88.112 61.6568 88.112C62.1688 88.112 62.5795 88.064 62.8888 87.968C63.2088 87.8613 63.4435 87.7173 63.5928 87.536C63.7421 87.3547 63.8168 87.1467 63.8168 86.912C63.8168 86.6133 63.6995 86.3787 63.4648 86.208C63.2301 86.0267 62.9208 85.8827 62.5368 85.776C62.1528 85.6587 61.7261 85.552 61.2568 85.456C60.7981 85.3493 60.3341 85.2213 59.8648 85.072C59.4061 84.9227 58.9848 84.7307 58.6008 84.496C58.2168 84.2613 57.9021 83.952 57.6568 83.568C57.4221 83.184 57.3048 82.6933 57.3048 82.096C57.3048 81.456 57.4755 80.8747 57.8168 80.352C58.1688 79.8187 58.6915 79.3973 59.3848 79.088C60.0888 78.768 60.9688 78.608 62.0248 78.608C62.7288 78.608 63.4221 78.6933 64.1048 78.864C64.7875 79.024 65.3901 79.2693 65.9128 79.6L65.1128 81.568C64.5901 81.2693 64.0675 81.0507 63.5448 80.912C63.0221 80.7627 62.5101 80.688 62.0088 80.688C61.5075 80.688 61.0968 80.7467 60.7768 80.864C60.4568 80.9813 60.2275 81.136 60.0888 81.328C59.9501 81.5093 59.8808 81.7227 59.8808 81.968C59.8808 82.256 59.9981 82.4907 60.2328 82.672C60.4675 82.8427 60.7768 82.9813 61.1608 83.088C61.5448 83.1947 61.9661 83.3013 62.4248 83.408C62.8941 83.5147 63.3581 83.6373 63.8168 83.776C64.2861 83.9147 64.7128 84.1013 65.0968 84.336C65.4808 84.5707 65.7901 84.88 66.0248 85.264C66.2701 85.648 66.3928 86.1333 66.3928 86.72C66.3928 87.3493 66.2168 87.9253 65.8648 88.448C65.5128 88.9707 64.9848 89.392 64.2808 89.712C63.5875 90.032 62.7075 90.192 61.6408 90.192ZM71.8439 90.192C70.9479 90.192 70.0893 90.0747 69.2679 89.84C68.4466 89.5947 67.7853 89.28 67.2839 88.896L68.1639 86.944C68.6439 87.2853 69.2093 87.568 69.8599 87.792C70.5213 88.0053 71.1879 88.112 71.8599 88.112C72.3719 88.112 72.7826 88.064 73.0919 87.968C73.4119 87.8613 73.6466 87.7173 73.7959 87.536C73.9453 87.3547 74.0199 87.1467 74.0199 86.912C74.0199 86.6133 73.9026 86.3787 73.6679 86.208C73.4333 86.0267 73.1239 85.8827 72.7399 85.776C72.3559 85.6587 71.9293 85.552 71.4599 85.456C71.0013 85.3493 70.5373 85.2213 70.0679 85.072C69.6093 84.9227 69.1879 84.7307 68.8039 84.496C68.4199 84.2613 68.1053 83.952 67.8599 83.568C67.6253 83.184 67.5079 82.6933 67.5079 82.096C67.5079 81.456 67.6786 80.8747 68.0199 80.352C68.3719 79.8187 68.8946 79.3973 69.5879 79.088C70.2919 78.768 71.1719 78.608 72.2279 78.608C72.9319 78.608 73.6253 78.6933 74.3079 78.864C74.9906 79.024 75.5933 79.2693 76.1159 79.6L75.3159 81.568C74.7933 81.2693 74.2706 81.0507 73.7479 80.912C73.2253 80.7627 72.7133 80.688 72.2119 80.688C71.7106 80.688 71.2999 80.7467 70.9799 80.864C70.6599 80.9813 70.4306 81.136 70.2919 81.328C70.1533 81.5093 70.0839 81.7227 70.0839 81.968C70.0839 82.256 70.2013 82.4907 70.4359 82.672C70.6706 82.8427 70.9799 82.9813 71.3639 83.088C71.7479 83.1947 72.1693 83.3013 72.6279 83.408C73.0973 83.5147 73.5613 83.6373 74.0199 83.776C74.4893 83.9147 74.9159 84.1013 75.2999 84.336C75.6839 84.5707 75.9933 84.88 76.2279 85.264C76.4733 85.648 76.5959 86.1333 76.5959 86.72C76.5959 87.3493 76.4199 87.9253 76.0679 88.448C75.7159 88.9707 75.1879 89.392 74.4839 89.712C73.7906 90.032 72.9106 90.192 71.8439 90.192Z" fill="black"/>
<path d="M38.125 66.25L33.75 11.5625H86.25L81.875 66.25L60 72.8125L38.125 66.25Z" fill="#1172B8"/>
<path d="M81.875 15.9375H60V69.5312L77.5 64.0625L81.875 15.9375Z" fill="#33AADD"/>
<path d="M67.6562 43.2812H45.7812L44.6875 35.625L62.1875 30.1562H44.6875L43.5938 23.5938H77.5L76.4062 31.25L62.1875 36.7188H75.3125L73.125 57.5L60 61.875L46.875 57.5L45.7812 46.5625H52.3438L53.4375 52.0312L60 54.2188L66.5625 52.0312L67.6562 43.2812Z" fill="white"/>
</svg>
