<svg width="120" height="100" viewBox="0 0 120 100" fill="none" xmlns="http://www.w3.org/2000/svg">
<path d="M29.7811 87V75.8H34.8691C36.0851 75.8 37.1571 76.0347 38.0851 76.504C39.0131 76.9627 39.7385 77.608 40.2611 78.44C40.7838 79.272 41.0451 80.2587 41.0451 81.4C41.0451 82.5307 40.7838 83.5173 40.2611 84.36C39.7385 85.192 39.0131 85.8427 38.0851 86.312C37.1571 86.7707 36.0851 87 34.8691 87H29.7811ZM32.3731 84.872H34.7411C35.4878 84.872 36.1331 84.7333 36.6771 84.456C37.2318 84.168 37.6585 83.7627 37.9571 83.24C38.2665 82.7173 38.4211 82.104 38.4211 81.4C38.4211 80.6853 38.2665 80.072 37.9571 79.56C37.6585 79.0373 37.2318 78.6373 36.6771 78.36C36.1331 78.072 35.4878 77.928 34.7411 77.928H32.3731V84.872ZM43.4651 90.232C43.0811 90.232 42.7131 90.1893 42.3611 90.104C42.0091 90.0293 41.7105 89.912 41.4651 89.752L42.1371 87.944C42.4251 88.1467 42.7771 88.248 43.1931 88.248C43.5025 88.248 43.7478 88.1413 43.9291 87.928C44.1211 87.7253 44.2171 87.416 44.2171 87V78.392H46.7131V86.984C46.7131 87.976 46.4305 88.7653 45.8651 89.352C45.2998 89.9387 44.4998 90.232 43.4651 90.232ZM45.4651 77.192C45.0065 77.192 44.6331 77.0587 44.3451 76.792C44.0571 76.5253 43.9131 76.1947 43.9131 75.8C43.9131 75.4053 44.0571 75.0747 44.3451 74.808C44.6331 74.5413 45.0065 74.408 45.4651 74.408C45.9238 74.408 46.2971 74.536 46.5851 74.792C46.8731 75.0373 47.0171 75.3573 47.0171 75.752C47.0171 76.168 46.8731 76.5147 46.5851 76.792C46.3078 77.0587 45.9345 77.192 45.4651 77.192ZM54.2914 87V85.32L54.1314 84.952V81.944C54.1314 81.4107 53.966 80.9947 53.6354 80.696C53.3154 80.3973 52.8194 80.248 52.1474 80.248C51.6887 80.248 51.2354 80.3227 50.7874 80.472C50.35 80.6107 49.9767 80.8027 49.6674 81.048L48.7714 79.304C49.2407 78.9733 49.806 78.7173 50.4674 78.536C51.1287 78.3547 51.8007 78.264 52.4834 78.264C53.7954 78.264 54.814 78.5733 55.5394 79.192C56.2647 79.8107 56.6274 80.776 56.6274 82.088V87H54.2914ZM51.6674 87.128C50.9954 87.128 50.4194 87.016 49.9394 86.792C49.4594 86.5573 49.0914 86.2427 48.8354 85.848C48.5794 85.4533 48.4514 85.0107 48.4514 84.52C48.4514 84.008 48.574 83.56 48.8194 83.176C49.0754 82.792 49.4754 82.4933 50.0194 82.28C50.5634 82.056 51.2727 81.944 52.1474 81.944H54.4354V83.4H52.4194C51.8327 83.4 51.4274 83.496 51.2034 83.688C50.99 83.88 50.8834 84.12 50.8834 84.408C50.8834 84.728 51.006 84.984 51.2514 85.176C51.5074 85.3573 51.854 85.448 52.2914 85.448C52.7074 85.448 53.0807 85.352 53.4114 85.16C53.742 84.9573 53.982 84.664 54.1314 84.28L54.5154 85.432C54.334 85.9867 54.0034 86.408 53.5234 86.696C53.0434 86.984 52.4247 87.128 51.6674 87.128ZM64.1184 78.264C64.801 78.264 65.409 78.4027 65.9424 78.68C66.4864 78.9467 66.913 79.3627 67.2224 79.928C67.5317 80.4827 67.6864 81.1973 67.6864 82.072V87H65.1904V82.456C65.1904 81.7627 65.0357 81.2507 64.7264 80.92C64.4277 80.5893 64.001 80.424 63.4464 80.424C63.0517 80.424 62.6944 80.5093 62.3744 80.68C62.065 80.84 61.8197 81.0907 61.6384 81.432C61.4677 81.7733 61.3824 82.2107 61.3824 82.744V87H58.8864V78.392H61.2704V80.776L60.8224 80.056C61.1317 79.48 61.5744 79.0373 62.1504 78.728C62.7264 78.4187 63.3824 78.264 64.1184 78.264ZM74.0594 90.232C73.2487 90.232 72.4647 90.1307 71.7074 89.928C70.9607 89.736 70.3367 89.4427 69.8354 89.048L70.8274 87.256C71.19 87.5547 71.6487 87.7893 72.2034 87.96C72.7687 88.1413 73.3234 88.232 73.8674 88.232C74.7527 88.232 75.3927 88.0347 75.7874 87.64C76.1927 87.2453 76.3954 86.6587 76.3954 85.88V84.584L76.5554 82.424L76.5234 80.248V78.392H78.8914V85.56C78.8914 87.16 78.4754 88.3387 77.6434 89.096C76.8114 89.8533 75.6167 90.232 74.0594 90.232ZM73.6754 86.584C72.8754 86.584 72.15 86.4133 71.4994 86.072C70.8594 85.72 70.342 85.2347 69.9474 84.616C69.5634 83.9867 69.3714 83.256 69.3714 82.424C69.3714 81.5813 69.5634 80.8507 69.9474 80.232C70.342 79.6027 70.8594 79.1173 71.4994 78.776C72.15 78.4347 72.8754 78.264 73.6754 78.264C74.4007 78.264 75.0407 78.4133 75.5954 78.712C76.15 79 76.582 79.4533 76.8914 80.072C77.2007 80.68 77.3554 81.464 77.3554 82.424C77.3554 83.3733 77.2007 84.1573 76.8914 84.776C76.582 85.384 76.15 85.8373 75.5954 86.136C75.0407 86.4347 74.4007 86.584 73.6754 86.584ZM74.1714 84.536C74.6087 84.536 74.998 84.4507 75.3394 84.28C75.6807 84.0987 75.9474 83.848 76.1394 83.528C76.3314 83.208 76.4274 82.84 76.4274 82.424C76.4274 81.9973 76.3314 81.6293 76.1394 81.32C75.9474 81 75.6807 80.7547 75.3394 80.584C74.998 80.4027 74.6087 80.312 74.1714 80.312C73.734 80.312 73.3447 80.4027 73.0034 80.584C72.662 80.7547 72.39 81 72.1874 81.32C71.9954 81.6293 71.8994 81.9973 71.8994 82.424C71.8994 82.84 71.9954 83.208 72.1874 83.528C72.39 83.848 72.662 84.0987 73.0034 84.28C73.3447 84.4507 73.734 84.536 74.1714 84.536ZM85.3105 87.128C84.3932 87.128 83.5772 86.936 82.8625 86.552C82.1585 86.168 81.5985 85.6453 81.1825 84.984C80.7772 84.312 80.5745 83.5493 80.5745 82.696C80.5745 81.832 80.7772 81.0693 81.1825 80.408C81.5985 79.736 82.1585 79.2133 82.8625 78.84C83.5772 78.456 84.3932 78.264 85.3105 78.264C86.2172 78.264 87.0278 78.456 87.7425 78.84C88.4572 79.2133 89.0172 79.7307 89.4225 80.392C89.8278 81.0533 90.0305 81.8213 90.0305 82.696C90.0305 83.5493 89.8278 84.312 89.4225 84.984C89.0172 85.6453 88.4572 86.168 87.7425 86.552C87.0278 86.936 86.2172 87.128 85.3105 87.128ZM85.3105 85.08C85.7265 85.08 86.0998 84.984 86.4305 84.792C86.7612 84.6 87.0225 84.328 87.2145 83.976C87.4065 83.6133 87.5025 83.1867 87.5025 82.696C87.5025 82.1947 87.4065 81.768 87.2145 81.416C87.0225 81.064 86.7612 80.792 86.4305 80.6C86.0998 80.408 85.7265 80.312 85.3105 80.312C84.8945 80.312 84.5212 80.408 84.1905 80.6C83.8598 80.792 83.5932 81.064 83.3905 81.416C83.1985 81.768 83.1025 82.1947 83.1025 82.696C83.1025 83.1867 83.1985 83.6133 83.3905 83.976C83.5932 84.328 83.8598 84.6 84.1905 84.792C84.5212 84.984 84.8945 85.08 85.3105 85.08Z" fill="black"/>
<path d="M54.8959 9.875H64.6845V54.7297C60.5061 55.5873 56.2531 56.0297 51.9877 56.0505C40.034 56.0382 33.8127 50.6982 33.8127 40.4431C33.8127 30.5681 40.4117 24.1493 50.6397 24.1493C52.0742 24.1213 53.5059 24.2874 54.8959 24.6431V9.875ZM54.8959 32.4443C53.8317 32.0933 52.7155 31.9263 51.5952 31.9506C46.6577 31.9506 43.7865 34.9698 43.7865 40.2604C43.7865 45.4127 46.5194 48.2567 51.5334 48.2567C52.6588 48.2564 53.7826 48.1739 54.8959 48.0098V32.4567V32.4443Z" fill="#44B78B"/>
<path d="M80.2376 24.8331V47.2988C80.2376 55.0334 79.6574 58.7513 77.9589 61.9582C76.2255 65.2189 73.391 67.7586 69.9602 69.125L60.8801 64.8466C64.1789 63.717 66.9417 61.4046 68.6345 58.3563C70.0318 55.5888 70.4737 52.3819 70.4737 43.9462V24.8331H80.2376Z" fill="#44B78B"/>
<path d="M80.2498 9.92438H70.4636V19.8685H80.2498V9.92438Z" fill="#44B78B"/>
</svg>
