<svg width="120" height="100" viewBox="0 0 120 100" fill="none" xmlns="http://www.w3.org/2000/svg">
<path d="M43.2264 90V78.8H48.0744C49.0771 78.8 49.9411 78.9653 50.6664 79.296C51.3918 79.616 51.9518 80.08 52.3464 80.688C52.7411 81.296 52.9384 82.0213 52.9384 82.864C52.9384 83.696 52.7411 84.416 52.3464 85.024C51.9518 85.632 51.3918 86.1013 50.6664 86.432C49.9411 86.752 49.0771 86.912 48.0744 86.912H44.6664L45.8184 85.744V90H43.2264ZM45.8184 86.032L44.6664 84.8H47.9304C48.7304 84.8 49.3278 84.6293 49.7224 84.288C50.1171 83.9467 50.3144 83.472 50.3144 82.864C50.3144 82.2453 50.1171 81.7653 49.7224 81.424C49.3278 81.0827 48.7304 80.912 47.9304 80.912H44.6664L45.8184 79.68V86.032ZM62.4689 78.8H65.0609V90H62.4689V78.8ZM57.3809 90H54.7889V78.8H57.3809V90ZM62.6609 85.408H57.1889V83.216H62.6609V85.408ZM67.7108 90V78.8H72.5588C73.5615 78.8 74.4255 78.9653 75.1508 79.296C75.8761 79.616 76.4361 80.08 76.8308 80.688C77.2255 81.296 77.4228 82.0213 77.4228 82.864C77.4228 83.696 77.2255 84.416 76.8308 85.024C76.4361 85.632 75.8761 86.1013 75.1508 86.432C74.4255 86.752 73.5615 86.912 72.5588 86.912H69.1508L70.3028 85.744V90H67.7108ZM70.3028 86.032L69.1508 84.8H72.4148C73.2148 84.8 73.8121 84.6293 74.2068 84.288C74.6015 83.9467 74.7988 83.472 74.7988 82.864C74.7988 82.2453 74.6015 81.7653 74.2068 81.424C73.8121 81.0827 73.2148 80.912 72.4148 80.912H69.1508L70.3028 79.68V86.032Z" fill="black"/>
<path d="M41.625 45.1678C42.2995 45.083 42.9841 45.1327 43.6393 45.3141C44.2945 45.4954 44.9073 45.8048 45.4422 46.2244C45.7873 46.756 46.0074 47.359 46.0858 47.988C46.1643 48.617 46.099 49.2555 45.895 49.8556C45.716 51.333 45.0016 52.6935 43.8869 53.6794C42.5426 54.5453 40.9536 54.9514 39.3588 54.8366H36.2962L38.1775 45.1875L41.625 45.1678ZM29.375 64.606H34.4063L35.5984 58.481H39.9012C41.4864 58.5213 43.0684 58.317 44.5913 57.875C45.842 57.4621 46.9852 56.7762 47.9381 55.8669C49.5862 54.3849 50.697 52.3988 51.0969 50.2188C51.4125 49.1337 51.4681 47.9896 51.2591 46.8791C51.0501 45.7686 50.5823 44.7229 49.8938 43.8269C49.0636 43.0042 48.0639 42.3727 46.9644 41.9763C45.865 41.58 44.6922 41.4284 43.5281 41.5322H33.8747L29.375 64.606Z" fill="#8993BE"/>
<path d="M54.7872 35.394H59.7812L58.5715 41.519H63.0143C65.0555 41.3053 67.1062 41.824 68.8003 42.9825C69.3608 43.6197 69.744 44.393 69.9114 45.225C70.0788 46.057 70.0245 46.9184 69.754 47.7228L67.6672 58.4612H62.614L64.6003 48.2522C64.7385 47.8627 64.7878 47.4472 64.7447 47.0361C64.7015 46.6251 64.567 46.2289 64.3509 45.8765C63.6268 45.357 62.7318 45.1333 61.8484 45.2509H57.8606L55.2903 58.4722H50.2853L54.7872 35.394Z" fill="#8993BE"/>
<path d="M80.8666 45.1679C81.5411 45.0831 82.2257 45.1328 82.8809 45.3141C83.5361 45.4955 84.1489 45.8049 84.6838 46.2244C85.0289 46.7561 85.249 47.3591 85.3274 47.988C85.4058 48.617 85.3406 49.2556 85.1366 49.8557C84.9576 51.333 84.2431 52.6935 83.1285 53.6794C81.7818 54.5472 80.1894 54.9533 78.5916 54.8366H75.5313L77.4081 45.1766L80.8666 45.1679ZM68.6166 64.606H73.6478L74.84 58.481H79.145C80.7331 58.5223 82.3181 58.3179 83.8438 57.8751C85.0945 57.4621 86.2377 56.7762 87.1906 55.8669C88.8347 54.3833 89.9415 52.3974 90.3385 50.2188C90.6541 49.1338 90.7097 47.9896 90.5007 46.8791C90.2916 45.7686 89.8239 44.7229 89.1353 43.8269C88.3049 43.0057 87.3052 42.3756 86.2062 41.9804C85.1072 41.5852 83.9352 41.4345 82.7719 41.5388H73.1031L68.6166 64.606Z" fill="#8993BE"/>
</svg>
