<svg width="120" height="100" viewBox="0 0 120 100" fill="none" xmlns="http://www.w3.org/2000/svg">
<path d="M19.1561 87V75.8H24.0041C25.0068 75.8 25.8708 75.9653 26.5961 76.296C27.3215 76.616 27.8815 77.08 28.2761 77.688C28.6708 78.296 28.8681 79.0213 28.8681 79.864C28.8681 80.696 28.6708 81.416 28.2761 82.024C27.8815 82.632 27.3215 83.1013 26.5961 83.432C25.8708 83.752 25.0068 83.912 24.0041 83.912H20.5961L21.7481 82.744V87H19.1561ZM21.7481 83.032L20.5961 81.8H23.8601C24.6601 81.8 25.2575 81.6293 25.6521 81.288C26.0468 80.9467 26.2441 80.472 26.2441 79.864C26.2441 79.2453 26.0468 78.7653 25.6521 78.424C25.2575 78.0827 24.6601 77.912 23.8601 77.912H20.5961L21.7481 76.68V83.032ZM34.623 87.128C33.7057 87.128 32.8897 86.936 32.175 86.552C31.471 86.168 30.911 85.6453 30.495 84.984C30.0897 84.312 29.887 83.5493 29.887 82.696C29.887 81.832 30.0897 81.0693 30.495 80.408C30.911 79.736 31.471 79.2133 32.175 78.84C32.8897 78.456 33.7057 78.264 34.623 78.264C35.5297 78.264 36.3403 78.456 37.055 78.84C37.7697 79.2133 38.3297 79.7307 38.735 80.392C39.1403 81.0533 39.343 81.8213 39.343 82.696C39.343 83.5493 39.1403 84.312 38.735 84.984C38.3297 85.6453 37.7697 86.168 37.055 86.552C36.3403 86.936 35.5297 87.128 34.623 87.128ZM34.623 85.08C35.039 85.08 35.4123 84.984 35.743 84.792C36.0737 84.6 36.335 84.328 36.527 83.976C36.719 83.6133 36.815 83.1867 36.815 82.696C36.815 82.1947 36.719 81.768 36.527 81.416C36.335 81.064 36.0737 80.792 35.743 80.6C35.4123 80.408 35.039 80.312 34.623 80.312C34.207 80.312 33.8337 80.408 33.503 80.6C33.1723 80.792 32.9057 81.064 32.703 81.416C32.511 81.768 32.415 82.1947 32.415 82.696C32.415 83.1867 32.511 83.6133 32.703 83.976C32.9057 84.328 33.1723 84.6 33.503 84.792C33.8337 84.984 34.207 85.08 34.623 85.08ZM43.9074 87.128C43.1714 87.128 42.462 87.0427 41.7794 86.872C41.1074 86.6907 40.574 86.4667 40.1794 86.2L41.0114 84.408C41.406 84.6533 41.87 84.856 42.4034 85.016C42.9474 85.1653 43.4807 85.24 44.0034 85.24C44.5794 85.24 44.9847 85.1707 45.2194 85.032C45.4647 84.8933 45.5874 84.7013 45.5874 84.456C45.5874 84.2533 45.4914 84.104 45.2994 84.008C45.118 83.9013 44.8727 83.8213 44.5634 83.768C44.254 83.7147 43.9127 83.6613 43.5394 83.608C43.1767 83.5547 42.8087 83.4853 42.4354 83.4C42.062 83.304 41.7207 83.1653 41.4114 82.984C41.102 82.8027 40.8514 82.5573 40.6594 82.248C40.478 81.9387 40.3874 81.5387 40.3874 81.048C40.3874 80.504 40.542 80.024 40.8514 79.608C41.1714 79.192 41.63 78.8667 42.2274 78.632C42.8247 78.3867 43.5394 78.264 44.3714 78.264C44.958 78.264 45.5554 78.328 46.1634 78.456C46.7714 78.584 47.278 78.7707 47.6834 79.016L46.8514 80.792C46.4354 80.5467 46.014 80.3813 45.5874 80.296C45.1714 80.2 44.766 80.152 44.3714 80.152C43.8167 80.152 43.4114 80.2267 43.1554 80.376C42.8994 80.5253 42.7714 80.7173 42.7714 80.952C42.7714 81.1653 42.862 81.3253 43.0434 81.432C43.2354 81.5387 43.486 81.624 43.7954 81.688C44.1047 81.752 44.4407 81.8107 44.8034 81.864C45.1767 81.9067 45.55 81.976 45.9234 82.072C46.2967 82.168 46.6327 82.3067 46.9314 82.488C47.2407 82.6587 47.4914 82.8987 47.6834 83.208C47.8754 83.5067 47.9714 83.9013 47.9714 84.392C47.9714 84.9253 47.8114 85.4 47.4914 85.816C47.1714 86.2213 46.7074 86.5413 46.0994 86.776C45.502 87.0107 44.7714 87.128 43.9074 87.128ZM53.0314 87.128C52.018 87.128 51.2287 86.872 50.6634 86.36C50.098 85.8373 49.8154 85.064 49.8154 84.04V76.488H52.3114V84.008C52.3114 84.3707 52.4074 84.6533 52.5994 84.856C52.7914 85.048 53.0527 85.144 53.3834 85.144C53.778 85.144 54.114 85.0373 54.3914 84.824L55.0634 86.584C54.8074 86.7653 54.498 86.904 54.1354 87C53.7834 87.0853 53.4154 87.128 53.0314 87.128ZM48.4874 80.504V78.584H54.4554V80.504H48.4874ZM60.2469 90.232C59.4362 90.232 58.6522 90.1307 57.8949 89.928C57.1482 89.736 56.5242 89.4427 56.0229 89.048L57.0149 87.256C57.3775 87.5547 57.8362 87.7893 58.3909 87.96C58.9562 88.1413 59.5109 88.232 60.0549 88.232C60.9402 88.232 61.5802 88.0347 61.9749 87.64C62.3802 87.2453 62.5829 86.6587 62.5829 85.88V84.584L62.7429 82.424L62.7109 80.248V78.392H65.0789V85.56C65.0789 87.16 64.6629 88.3387 63.8309 89.096C62.9989 89.8533 61.8042 90.232 60.2469 90.232ZM59.8629 86.584C59.0629 86.584 58.3375 86.4133 57.6869 86.072C57.0469 85.72 56.5295 85.2347 56.1349 84.616C55.7509 83.9867 55.5589 83.256 55.5589 82.424C55.5589 81.5813 55.7509 80.8507 56.1349 80.232C56.5295 79.6027 57.0469 79.1173 57.6869 78.776C58.3375 78.4347 59.0629 78.264 59.8629 78.264C60.5882 78.264 61.2282 78.4133 61.7829 78.712C62.3375 79 62.7695 79.4533 63.0789 80.072C63.3882 80.68 63.5429 81.464 63.5429 82.424C63.5429 83.3733 63.3882 84.1573 63.0789 84.776C62.7695 85.384 62.3375 85.8373 61.7829 86.136C61.2282 86.4347 60.5882 86.584 59.8629 86.584ZM60.3589 84.536C60.7962 84.536 61.1855 84.4507 61.5269 84.28C61.8682 84.0987 62.1349 83.848 62.3269 83.528C62.5189 83.208 62.6149 82.84 62.6149 82.424C62.6149 81.9973 62.5189 81.6293 62.3269 81.32C62.1349 81 61.8682 80.7547 61.5269 80.584C61.1855 80.4027 60.7962 80.312 60.3589 80.312C59.9215 80.312 59.5322 80.4027 59.1909 80.584C58.8495 80.7547 58.5775 81 58.3749 81.32C58.1829 81.6293 58.0869 81.9973 58.0869 82.424C58.0869 82.84 58.1829 83.208 58.3749 83.528C58.5775 83.848 58.8495 84.0987 59.1909 84.28C59.5322 84.4507 59.9215 84.536 60.3589 84.536ZM67.402 87V78.392H69.786V80.824L69.45 80.12C69.706 79.512 70.1167 79.0533 70.682 78.744C71.2473 78.424 71.9353 78.264 72.746 78.264V80.568C72.6393 80.5573 72.5433 80.552 72.458 80.552C72.3727 80.5413 72.282 80.536 72.186 80.536C71.5033 80.536 70.9487 80.7333 70.522 81.128C70.106 81.512 69.898 82.1147 69.898 82.936V87H67.402ZM78.4396 87.128C77.4583 87.128 76.5943 86.936 75.8476 86.552C75.1116 86.168 74.541 85.6453 74.1356 84.984C73.7303 84.312 73.5276 83.5493 73.5276 82.696C73.5276 81.832 73.725 81.0693 74.1196 80.408C74.525 79.736 75.0743 79.2133 75.7676 78.84C76.461 78.456 77.245 78.264 78.1196 78.264C78.9623 78.264 79.7196 78.4453 80.3916 78.808C81.0743 79.16 81.613 79.672 82.0076 80.344C82.4023 81.0053 82.5996 81.8 82.5996 82.728C82.5996 82.824 82.5943 82.936 82.5836 83.064C82.573 83.1813 82.5623 83.2933 82.5516 83.4H75.5596V81.944H81.2396L80.2796 82.376C80.2796 81.928 80.189 81.5387 80.0076 81.208C79.8263 80.8773 79.5756 80.6213 79.2556 80.44C78.9356 80.248 78.5623 80.152 78.1356 80.152C77.709 80.152 77.3303 80.248 76.9996 80.44C76.6796 80.6213 76.429 80.8827 76.2476 81.224C76.0663 81.5547 75.9756 81.9493 75.9756 82.408V82.792C75.9756 83.2613 76.077 83.6773 76.2796 84.04C76.493 84.392 76.7863 84.664 77.1596 84.856C77.5436 85.0373 77.9916 85.128 78.5036 85.128C78.9623 85.128 79.3623 85.0587 79.7036 84.92C80.0556 84.7813 80.3756 84.5733 80.6636 84.296L81.9916 85.736C81.597 86.184 81.101 86.5307 80.5036 86.776C79.9063 87.0107 79.2183 87.128 78.4396 87.128ZM88.1174 87.192C87.2214 87.192 86.3627 87.0747 85.5414 86.84C84.72 86.5947 84.0587 86.28 83.5574 85.896L84.4374 83.944C84.9174 84.2853 85.4827 84.568 86.1334 84.792C86.7947 85.0053 87.4614 85.112 88.1334 85.112C88.6454 85.112 89.056 85.064 89.3654 84.968C89.6854 84.8613 89.92 84.7173 90.0694 84.536C90.2187 84.3547 90.2934 84.1467 90.2934 83.912C90.2934 83.6133 90.176 83.3787 89.9414 83.208C89.7067 83.0267 89.3974 82.8827 89.0134 82.776C88.6294 82.6587 88.2027 82.552 87.7334 82.456C87.2747 82.3493 86.8107 82.2213 86.3414 82.072C85.8827 81.9227 85.4614 81.7307 85.0774 81.496C84.6934 81.2613 84.3787 80.952 84.1334 80.568C83.8987 80.184 83.7814 79.6933 83.7814 79.096C83.7814 78.456 83.952 77.8747 84.2934 77.352C84.6454 76.8187 85.168 76.3973 85.8614 76.088C86.5654 75.768 87.4454 75.608 88.5014 75.608C89.2054 75.608 89.8987 75.6933 90.5814 75.864C91.264 76.024 91.8667 76.2693 92.3894 76.6L91.5894 78.568C91.0667 78.2693 90.544 78.0507 90.0214 77.912C89.4987 77.7627 88.9867 77.688 88.4854 77.688C87.984 77.688 87.5734 77.7467 87.2534 77.864C86.9334 77.9813 86.704 78.136 86.5654 78.328C86.4267 78.5093 86.3574 78.7227 86.3574 78.968C86.3574 79.256 86.4747 79.4907 86.7094 79.672C86.944 79.8427 87.2534 79.9813 87.6374 80.088C88.0214 80.1947 88.4427 80.3013 88.9014 80.408C89.3707 80.5147 89.8347 80.6373 90.2934 80.776C90.7627 80.9147 91.1894 81.1013 91.5734 81.336C91.9574 81.5707 92.2667 81.88 92.5014 82.264C92.7467 82.648 92.8694 83.1333 92.8694 83.72C92.8694 84.3493 92.6934 84.9253 92.3414 85.448C91.9894 85.9707 91.4614 86.392 90.7574 86.712C90.064 87.032 89.184 87.192 88.1174 87.192ZM98.1285 87.128C97.3178 87.128 96.5872 86.9467 95.9365 86.584C95.2858 86.2213 94.7685 85.7093 94.3845 85.048C94.0112 84.3867 93.8245 83.6027 93.8245 82.696C93.8245 81.8 94.0112 81.0213 94.3845 80.36C94.7685 79.6987 95.2858 79.1867 95.9365 78.824C96.5872 78.4507 97.3178 78.264 98.1285 78.264C98.8858 78.264 99.5312 78.424 100.065 78.744C100.609 79.064 101.025 79.5493 101.312 80.2C101.601 80.8507 101.745 81.6827 101.745 82.696C101.745 83.6987 101.595 84.5307 101.297 85.192C100.998 85.8427 100.577 86.328 100.033 86.648C99.4885 86.968 98.8538 87.128 98.1285 87.128ZM98.5605 85.08C98.9658 85.08 99.3338 84.984 99.6645 84.792C99.9952 84.6 100.257 84.328 100.449 83.976C100.651 83.6133 100.753 83.1867 100.753 82.696C100.753 82.1947 100.651 81.768 100.449 81.416C100.257 81.064 99.9952 80.792 99.6645 80.6C99.3338 80.408 98.9658 80.312 98.5605 80.312C98.1445 80.312 97.7712 80.408 97.4405 80.6C97.1098 80.792 96.8432 81.064 96.6405 81.416C96.4485 81.768 96.3525 82.1947 96.3525 82.696C96.3525 83.1867 96.4485 83.6133 96.6405 83.976C96.8432 84.328 97.1098 84.6 97.4405 84.792C97.7712 84.984 98.1445 85.08 98.5605 85.08ZM100.705 90.104V85.256L100.865 82.712L100.817 80.152V78.392H103.201V90.104H100.705ZM105.511 87V75.128H108.007V87H105.511Z" fill="black"/>
<path d="M90.752 39.5214C90.3683 38.3592 89.363 37.5497 88.063 37.3554C87.45 37.2639 86.748 37.3029 85.9173 37.4742C84.4693 37.7729 83.395 37.8867 82.611 37.9087C85.5703 32.9124 87.9765 27.2149 89.3618 21.8517C91.6018 13.1794 90.4048 9.2287 89.006 7.4417C85.3043 2.7117 79.9035 0.170697 73.388 0.0929469C69.9123 0.0504469 66.861 0.736697 65.2693 1.2302C63.7873 0.968697 62.1938 0.822697 60.5218 0.795697C57.3875 0.745697 54.6183 1.42895 52.252 2.8332C50.942 2.3902 48.8395 1.7657 46.4115 1.3672C40.701 0.429697 36.0985 1.1602 32.732 3.53845C28.6555 6.41795 26.7658 11.4209 27.1153 18.4084C27.2263 20.6269 28.4673 27.3769 30.4213 33.7784C31.5443 37.4579 32.7418 40.5134 33.9805 42.8609C35.7373 46.1897 37.617 48.1499 39.7273 48.8539C40.91 49.2479 43.059 49.5239 45.3193 47.6414C45.6058 47.9884 45.988 48.3332 46.4953 48.6534C47.1395 49.0597 47.9273 49.3917 48.714 49.5884C51.5493 50.2972 54.205 50.1199 56.4708 49.1264C56.4848 49.5294 56.4955 49.9144 56.5045 50.2469C56.5195 50.7862 56.5345 51.3149 56.5543 51.8094C56.6885 55.1529 56.916 57.7527 57.59 59.5717C57.627 59.6717 57.6768 59.8242 57.7293 59.9859C58.0655 61.0154 58.6278 62.7389 60.0583 64.0887C61.5395 65.4869 63.3313 65.9157 64.9723 65.9157C65.7953 65.9157 66.5805 65.8077 67.2693 65.6602C69.7243 65.1339 72.5125 64.3324 74.5295 61.4604C76.4365 58.7454 77.3635 54.6562 77.5313 48.2129C77.553 48.0307 77.573 47.8567 77.5923 47.6909L77.6323 47.3504L78.0815 47.3899L78.1973 47.3977C80.6978 47.5117 83.7553 46.9814 85.633 46.1092C87.1168 45.4207 91.8715 42.9104 90.752 39.5214Z" fill="black"/>
<path d="M86.4765 40.1805C79.0415 41.7142 78.5302 39.197 78.5302 39.197C86.3802 27.5487 89.662 12.763 86.8302 9.14421C79.1042 -0.727043 65.7305 3.94146 65.5072 4.06246L65.4355 4.07546C63.9665 3.77046 62.3227 3.58896 60.475 3.55871C57.111 3.50371 54.559 4.44071 52.6225 5.90921C52.6225 5.90921 28.765 -3.91929 29.8747 18.2702C30.1107 22.9907 36.6407 53.9885 44.4292 44.6257C47.276 41.202 50.0267 38.3072 50.0267 38.3072C51.3927 39.2147 53.0282 39.6777 54.7427 39.5115L54.876 39.3985C54.8345 39.8235 54.8535 40.2392 54.9292 40.7315C52.9227 42.9732 53.5125 43.3667 49.5015 44.1925C45.4427 45.029 47.827 46.518 49.3837 46.9075C51.271 47.3792 55.637 48.0477 58.587 43.918L58.4695 44.3892C59.2555 45.019 59.8075 48.485 59.715 51.6272C59.6225 54.7692 59.5607 56.9265 60.18 58.6115C60.7997 60.2965 61.417 64.0877 66.69 62.958C71.0957 62.0137 73.379 59.567 73.6967 55.4855C73.922 52.584 74.4322 53.013 74.4642 50.4187L74.8735 49.1907C75.3452 45.2575 74.9485 43.9885 77.6627 44.5787L78.3227 44.6367C80.3202 44.7275 82.9352 44.3152 84.47 43.602C87.7745 42.0685 89.7345 39.5077 86.476 40.1805H86.4765Z" fill="#336791"/>
<path d="M54.0191 20.3812C53.3491 20.288 52.7423 20.3742 52.4353 20.6067C52.2628 20.7375 52.2093 20.889 52.1948 20.9932C52.1563 21.2695 52.3498 21.575 52.4688 21.7325C52.8053 22.1785 53.2968 22.485 53.7833 22.5525C53.8538 22.5625 53.9241 22.567 53.9938 22.567C54.8051 22.567 55.5428 21.9352 55.6078 21.469C55.6891 20.885 54.8413 20.4955 54.0191 20.3812ZM76.2151 20.3997C76.1511 19.942 75.3366 19.8115 74.5636 19.919C73.7916 20.0265 73.0431 20.375 73.1056 20.8337C73.1556 21.1905 73.7998 21.7995 74.5623 21.7995C74.6268 21.7995 74.6918 21.7952 74.7573 21.786C75.2663 21.7155 75.6398 21.3922 75.8173 21.206C76.0873 20.922 76.2438 20.6055 76.2151 20.3997Z" fill="white"/>
<path d="M88.9505 40.0063C88.667 39.149 87.7545 38.8733 86.2385 39.1863C81.7372 40.1153 80.1252 39.4718 79.596 39.082C83.0947 33.752 85.973 27.309 87.5257 21.2978C88.2612 18.4503 88.6675 15.8058 88.7007 13.6503C88.7375 11.2845 88.3345 9.54602 87.5035 8.48402C84.153 4.20277 79.2355 1.90627 73.283 1.84327C69.1907 1.79727 65.7332 2.84452 65.063 3.13902C63.6515 2.78802 62.1127 2.57252 60.4375 2.54502C57.3655 2.49527 54.71 3.23077 52.5115 4.73002C51.5565 4.37452 49.0885 3.52727 46.0702 3.04102C40.8522 2.20102 36.7057 2.83752 33.7467 4.93377C30.216 7.43527 28.586 11.9068 28.9017 18.2238C29.008 20.349 30.219 26.887 32.13 33.1483C34.6455 41.3893 37.38 46.0545 40.257 47.0143C40.5937 47.1265 40.982 47.205 41.4102 47.205C42.4597 47.205 43.7465 46.732 45.0852 45.1225C46.7181 43.1637 48.4072 41.2524 50.1505 39.391C51.2815 39.998 52.524 40.337 53.7947 40.371C53.7972 40.4043 53.8005 40.4375 53.8035 40.4705C53.5847 40.7314 53.3705 40.996 53.161 41.2643C52.2805 42.382 52.0972 42.6148 49.263 43.1983C48.4567 43.3648 46.3155 43.806 46.284 45.307C46.25 46.947 48.8152 47.6358 49.1075 47.7088C50.126 47.9638 51.1072 48.0895 52.043 48.0895C54.3187 48.0895 56.3215 47.3415 57.922 45.8943C57.8727 51.7408 58.1165 57.5018 58.8185 59.257C59.3935 60.694 60.798 64.2058 65.2345 64.2055C65.8855 64.2055 66.602 64.1298 67.3902 63.9608C72.0205 62.9683 74.0312 60.9218 74.809 56.41C75.2252 53.9988 75.9395 48.241 76.2755 45.1525C76.9845 45.3738 77.8972 45.475 78.884 45.4748C80.942 45.4748 83.3167 45.0375 84.806 44.3463C86.479 43.5693 89.498 41.6628 88.9505 40.0063ZM77.924 19.1363C77.9087 20.048 77.7832 20.8758 77.6502 21.7398C77.507 22.669 77.359 23.6298 77.3217 24.796C77.285 25.931 77.4267 27.111 77.5637 28.2523C77.8407 30.5573 78.125 32.9303 77.0247 35.2718C76.842 34.9479 76.6792 34.6132 76.5372 34.2695C76.4005 33.938 76.1035 33.4055 75.6922 32.6685C74.0925 29.7995 70.3462 23.081 72.264 20.3395C72.8352 19.5235 74.285 18.6845 77.924 19.1363ZM73.513 3.68952C78.8465 3.80727 83.0655 5.80252 86.0525 9.61952C88.3435 12.5473 85.8207 25.869 78.5175 37.3618C78.444 37.2684 78.3702 37.1753 78.296 37.0825L78.2035 36.967C80.0907 33.8503 79.7217 30.7665 79.3932 28.0325C79.2582 26.9105 79.1307 25.8508 79.1632 24.8553C79.1967 23.8003 79.3362 22.8953 79.4712 22.0203C79.637 20.942 79.8057 19.8263 79.7592 18.511C79.794 18.373 79.808 18.21 79.7897 18.0165C79.671 16.7553 78.231 12.9805 75.296 9.56402C73.6905 7.69527 71.3492 5.60402 68.1525 4.19352C69.5275 3.90852 71.4077 3.64277 73.513 3.68952ZM43.6685 43.9445C42.1935 45.718 41.175 45.378 40.84 45.2665C38.6575 44.5385 36.125 39.9255 33.8922 32.6105C31.9602 26.281 30.8312 19.9163 30.7417 18.1315C30.4597 12.487 31.828 8.55327 34.8087 6.43927C39.6597 2.99927 47.6352 5.05827 50.84 6.10252C50.794 6.14802 50.746 6.19052 50.7005 6.23677C45.4415 11.5478 45.5662 20.6218 45.5792 21.1765C45.5787 21.3905 45.5967 21.6935 45.6212 22.1103C45.7117 23.6365 45.8802 26.477 45.4302 29.6938C45.0122 32.683 45.9337 35.6088 47.958 37.721C48.1657 37.9374 48.3841 38.1433 48.6122 38.338C47.7112 39.303 45.753 41.437 43.6685 43.9445ZM49.2882 36.4463C47.6567 34.7438 46.9157 32.3758 47.255 29.9488C47.73 26.5508 47.5547 23.5913 47.4605 22.0013C47.4472 21.7788 47.4355 21.5838 47.4287 21.43C48.197 20.7488 51.7572 18.8413 54.2962 19.423C55.4547 19.6883 56.1607 20.4773 56.4542 21.8343C57.9732 28.86 56.6552 31.7883 55.5962 34.1415C55.378 34.6263 55.1717 35.0845 54.9957 35.5585L54.8592 35.925C54.5137 36.8515 54.1922 37.713 53.993 38.531C52.2585 38.526 50.5712 37.785 49.2882 36.446V36.4463ZM49.5545 45.9213C49.048 45.7948 48.5925 45.575 48.3252 45.3928C48.5485 45.2878 48.9457 45.1448 49.6347 45.0028C52.969 44.3165 53.484 43.832 54.6085 42.4043C54.8662 42.0768 55.1585 41.7058 55.5632 41.2538L55.5637 41.2533C56.1665 40.5783 56.4422 40.6928 56.9422 40.9003C57.3475 41.0678 57.7422 41.5758 57.9022 42.1348C57.978 42.3988 58.063 42.8998 57.7847 43.2898C55.4357 46.5788 52.0127 46.5365 49.5545 45.9213ZM67.0042 62.1593C62.9252 63.0333 61.481 60.952 60.5292 58.5728C59.915 57.0368 59.613 50.1103 59.8272 42.461C59.83 42.3593 59.8155 42.261 59.7875 42.1685C59.7624 41.9859 59.7243 41.8052 59.6735 41.628C59.355 40.515 58.5787 39.584 57.6475 39.198C57.2775 39.0448 56.5985 38.7635 55.7825 38.9723C55.9565 38.2553 56.2582 37.4455 56.5855 36.5688L56.7227 36.2C56.8772 35.7843 57.0712 35.3535 57.2762 34.8975C58.3845 32.4355 59.9022 29.0633 58.255 21.445C57.638 18.5915 55.5775 17.198 52.454 17.5218C50.5815 17.7155 48.8682 18.471 48.0137 18.9043C47.83 18.9973 47.662 19.0873 47.505 19.1748C47.7435 16.2998 48.6445 10.9268 52.015 7.52727C54.1372 5.38727 56.9635 4.33027 60.407 4.38727C67.192 4.49827 71.543 7.98027 73.9985 10.882C76.1145 13.3823 77.2602 15.901 77.7175 17.2595C74.2787 16.9098 71.94 17.5885 70.7545 19.2835C68.1752 22.9705 72.1655 30.1265 74.0832 33.5658C74.435 34.196 74.7385 34.7408 74.834 34.9723C75.4585 36.4858 76.267 37.4963 76.8572 38.2338C77.0382 38.4598 77.2137 38.679 77.3472 38.8705C76.3057 39.1708 74.435 39.8645 74.6055 43.3323C74.468 45.0723 73.4902 53.2188 72.9935 56.097C72.3377 59.8995 70.9385 61.3158 67.0042 62.1595V62.1593ZM84.0302 42.6753C82.9652 43.1695 81.183 43.5403 79.49 43.62C77.62 43.7075 76.668 43.4105 76.444 43.2278C76.339 41.0668 77.1432 40.841 77.9945 40.602C78.1282 40.5645 78.2587 40.5278 78.3847 40.4838C78.463 40.5475 78.5487 40.6108 78.6427 40.6728C80.1457 41.6648 82.8265 41.7718 86.6112 40.9905L86.6527 40.9823C86.1422 41.4595 85.2687 42.1 84.0302 42.6753Z" fill="white"/>
</svg>
