<svg width="120" height="100" viewBox="0 0 120 100" fill="none" xmlns="http://www.w3.org/2000/svg">
<path d="M30.328 87V75.8H35.176C36.1787 75.8 37.0427 75.9653 37.768 76.296C38.4933 76.616 39.0533 77.08 39.448 77.688C39.8427 78.296 40.04 79.0213 40.04 79.864C40.04 80.696 39.8427 81.416 39.448 82.024C39.0533 82.632 38.4933 83.1013 37.768 83.432C37.0427 83.752 36.1787 83.912 35.176 83.912H31.768L32.92 82.744V87H30.328ZM32.92 83.032L31.768 81.8H35.032C35.832 81.8 36.4293 81.6293 36.824 81.288C37.2187 80.9467 37.416 80.472 37.416 79.864C37.416 79.2453 37.2187 78.7653 36.824 78.424C36.4293 78.0827 35.832 77.912 35.032 77.912H31.768L32.92 76.68V83.032ZM42.9588 90.232C42.5108 90.232 42.0681 90.1627 41.6308 90.024C41.1934 89.8853 40.8361 89.6933 40.5587 89.448L41.4708 87.672C41.6628 87.8427 41.8814 87.976 42.1268 88.072C42.3828 88.168 42.6334 88.216 42.8788 88.216C43.2308 88.216 43.5081 88.1307 43.7108 87.96C43.9241 87.8 44.1161 87.528 44.2868 87.144L44.7348 86.088L44.9268 85.816L48.0148 78.392H50.4148L46.5268 87.528C46.2494 88.2213 45.9294 88.7653 45.5668 89.16C45.2148 89.5547 44.8201 89.832 44.3828 89.992C43.9561 90.152 43.4814 90.232 42.9588 90.232ZM44.4308 87.336L40.5907 78.392H43.1668L46.1428 85.592L44.4308 87.336ZM55.047 87.128C54.0337 87.128 53.2443 86.872 52.679 86.36C52.1137 85.8373 51.831 85.064 51.831 84.04V76.488H54.327V84.008C54.327 84.3707 54.423 84.6533 54.615 84.856C54.807 85.048 55.0683 85.144 55.399 85.144C55.7937 85.144 56.1297 85.0373 56.407 84.824L57.079 86.584C56.823 86.7653 56.5137 86.904 56.151 87C55.799 87.0853 55.431 87.128 55.047 87.128ZM50.503 80.312V78.392H56.471V80.312H50.503ZM58.4801 87V75.128H60.9761V80.776L60.4161 80.056C60.7255 79.48 61.1681 79.0373 61.7441 78.728C62.3201 78.4187 62.9761 78.264 63.7121 78.264C64.3948 78.264 65.0028 78.4027 65.5361 78.68C66.0801 78.9467 66.5068 79.3627 66.8161 79.928C67.1255 80.4827 67.2801 81.1973 67.2801 82.072V87H64.7841V82.456C64.7841 81.7627 64.6295 81.2507 64.3201 80.92C64.0215 80.5893 63.5948 80.424 63.0401 80.424C62.6455 80.424 62.2881 80.5093 61.9681 80.68C61.6588 80.84 61.4135 81.0907 61.2321 81.432C61.0615 81.7733 60.9761 82.2107 60.9761 82.744V87H58.4801ZM73.7011 87.128C72.7838 87.128 71.9678 86.936 71.2531 86.552C70.5491 86.168 69.9891 85.6453 69.5731 84.984C69.1678 84.312 68.9651 83.5493 68.9651 82.696C68.9651 81.832 69.1678 81.0693 69.5731 80.408C69.9891 79.736 70.5491 79.2133 71.2531 78.84C71.9678 78.456 72.7838 78.264 73.7011 78.264C74.6078 78.264 75.4185 78.456 76.1331 78.84C76.8478 79.2133 77.4078 79.7307 77.8131 80.392C78.2185 81.0533 78.4211 81.8213 78.4211 82.696C78.4211 83.5493 78.2185 84.312 77.8131 84.984C77.4078 85.6453 76.8478 86.168 76.1331 86.552C75.4185 86.936 74.6078 87.128 73.7011 87.128ZM73.7011 85.08C74.1171 85.08 74.4905 84.984 74.8211 84.792C75.1518 84.6 75.4131 84.328 75.6051 83.976C75.7971 83.6133 75.8931 83.1867 75.8931 82.696C75.8931 82.1947 75.7971 81.768 75.6051 81.416C75.4131 81.064 75.1518 80.792 74.8211 80.6C74.4905 80.408 74.1171 80.312 73.7011 80.312C73.2851 80.312 72.9118 80.408 72.5811 80.6C72.2505 80.792 71.9838 81.064 71.7811 81.416C71.5891 81.768 71.4931 82.1947 71.4931 82.696C71.4931 83.1867 71.5891 83.6133 71.7811 83.976C71.9838 84.328 72.2505 84.6 72.5811 84.792C72.9118 84.984 73.2851 85.08 73.7011 85.08ZM80.0895 87V78.392H82.4735V80.776L82.0255 80.056C82.3348 79.48 82.7775 79.0373 83.3535 78.728C83.9295 78.4187 84.5855 78.264 85.3215 78.264C86.0042 78.264 86.6122 78.4027 87.1455 78.68C87.6895 78.9467 88.1162 79.3627 88.4255 79.928C88.7348 80.4827 88.8895 81.1973 88.8895 82.072V87H86.3935V82.456C86.3935 81.7627 86.2388 81.2507 85.9295 80.92C85.6308 80.5893 85.2042 80.424 84.6495 80.424C84.2548 80.424 83.8975 80.5093 83.5775 80.68C83.2682 80.84 83.0228 81.0907 82.8415 81.432C82.6708 81.7733 82.5855 82.2107 82.5855 82.744V87H80.0895Z" fill="black"/>
<path fill-rule="evenodd" clip-rule="evenodd" d="M53.2869 4.5C48.3434 4.5 44.3361 8.38019 44.3361 13.1667V19.1667H59.8279V20.8333H37.4508C32.5074 20.8333 28.5 24.7136 28.5 29.5V42.5C28.5 47.2865 32.5074 51.1666 37.4508 51.1666H42.6147V43.8334C42.6147 39.047 46.6222 35.1666 51.5656 35.1666H68.0901C72.2731 35.1666 75.6638 31.8834 75.6638 27.8334V13.1667C75.6638 8.38019 71.6566 4.5 66.7131 4.5H53.2869ZM51.2214 15.1667C52.9325 15.1667 54.3196 13.8235 54.3196 12.1667C54.3196 10.5098 52.9325 9.16666 51.2214 9.16666C49.51 9.16666 48.1229 10.5098 48.1229 12.1667C48.1229 13.8235 49.51 15.1667 51.2214 15.1667Z" fill="url(#paint0_linear_204_2)"/>
<path fill-rule="evenodd" clip-rule="evenodd" d="M66.7126 67.5C71.6561 67.5 75.6636 63.6199 75.6636 58.8334V52.8334H60.1717V51.1668H82.5488C87.4923 51.1668 91.4995 47.2864 91.4995 42.5V29.5C91.4995 24.7135 87.4923 20.8334 82.5488 20.8334H77.3848V28.1666C77.3848 32.9533 73.3774 36.8334 68.4341 36.8334H51.9094C47.7265 36.8334 44.3357 40.1166 44.3357 44.1666V58.8334C44.3357 63.6199 48.3432 67.5 53.2864 67.5H66.7126ZM68.7784 56.8334C67.067 56.8334 65.6799 58.1764 65.6799 59.8333C65.6799 61.4902 67.067 62.8333 68.7784 62.8333C70.4895 62.8333 71.8766 61.4902 71.8766 59.8333C71.8766 58.1764 70.4895 56.8334 68.7784 56.8334Z" fill="url(#paint1_linear_204_2)"/>
<defs>
<linearGradient id="paint0_linear_204_2" x1="52.082" y1="4.5" x2="52.082" y2="51.1666" gradientUnits="userSpaceOnUse">
<stop stop-color="#327EBD"/>
<stop offset="1" stop-color="#1565A7"/>
</linearGradient>
<linearGradient id="paint1_linear_204_2" x1="67.9177" y1="20.8334" x2="67.9177" y2="67.5" gradientUnits="userSpaceOnUse">
<stop stop-color="#FFDA4B"/>
<stop offset="1" stop-color="#F9C600"/>
</linearGradient>
</defs>
</svg>
