<svg width="120" height="100" viewBox="0 0 120 100" fill="none" xmlns="http://www.w3.org/2000/svg">
<path d="M48.3283 87.192C47.4323 87.192 46.5736 87.0747 45.7523 86.84C44.931 86.5947 44.2696 86.28 43.7683 85.896L44.6483 83.944C45.1283 84.2853 45.6936 84.568 46.3443 84.792C47.0056 85.0053 47.6723 85.112 48.3443 85.112C48.8563 85.112 49.267 85.064 49.5763 84.968C49.8963 84.8613 50.131 84.7173 50.2803 84.536C50.4296 84.3547 50.5043 84.1467 50.5043 83.912C50.5043 83.6133 50.387 83.3787 50.1523 83.208C49.9176 83.0267 49.6083 82.8827 49.2243 82.776C48.8403 82.6587 48.4136 82.552 47.9443 82.456C47.4856 82.3493 47.0216 82.2213 46.5523 82.072C46.0936 81.9227 45.6723 81.7307 45.2883 81.496C44.9043 81.2613 44.5896 80.952 44.3443 80.568C44.1096 80.184 43.9923 79.6933 43.9923 79.096C43.9923 78.456 44.163 77.8747 44.5043 77.352C44.8563 76.8187 45.379 76.3973 46.0723 76.088C46.7763 75.768 47.6563 75.608 48.7123 75.608C49.4163 75.608 50.1096 75.6933 50.7923 75.864C51.475 76.024 52.0776 76.2693 52.6003 76.6L51.8003 78.568C51.2776 78.2693 50.755 78.0507 50.2323 77.912C49.7096 77.7627 49.1976 77.688 48.6963 77.688C48.195 77.688 47.7843 77.7467 47.4643 77.864C47.1443 77.9813 46.915 78.136 46.7763 78.328C46.6376 78.5093 46.5683 78.7227 46.5683 78.968C46.5683 79.256 46.6856 79.4907 46.9203 79.672C47.155 79.8427 47.4643 79.9813 47.8483 80.088C48.2323 80.1947 48.6536 80.3013 49.1123 80.408C49.5816 80.5147 50.0456 80.6373 50.5043 80.776C50.9736 80.9147 51.4003 81.1013 51.7843 81.336C52.1683 81.5707 52.4776 81.88 52.7123 82.264C52.9576 82.648 53.0803 83.1333 53.0803 83.72C53.0803 84.3493 52.9043 84.9253 52.5523 85.448C52.2003 85.9707 51.6723 86.392 50.9683 86.712C50.275 87.032 49.395 87.192 48.3283 87.192ZM60.2754 87.192C59.4008 87.192 58.5848 87.048 57.8274 86.76C57.0808 86.472 56.4301 86.0667 55.8754 85.544C55.3314 85.0213 54.9048 84.408 54.5954 83.704C54.2968 83 54.1474 82.232 54.1474 81.4C54.1474 80.568 54.2968 79.8 54.5954 79.096C54.9048 78.392 55.3368 77.7787 55.8914 77.256C56.4461 76.7333 57.0968 76.328 57.8434 76.04C58.5901 75.752 59.4008 75.608 60.2754 75.608C61.1608 75.608 61.9714 75.752 62.7074 76.04C63.4541 76.328 64.0994 76.7333 64.6434 77.256C65.1981 77.768 65.6301 78.376 65.9394 79.08C66.2488 79.784 66.4034 80.5573 66.4034 81.4C66.4034 82.232 66.2488 83.0053 65.9394 83.72C65.6301 84.424 65.1981 85.0373 64.6434 85.56C64.0994 86.072 63.4541 86.472 62.7074 86.76C61.9714 87.048 61.1608 87.192 60.2754 87.192ZM63.9394 89.576C63.5021 89.576 63.0861 89.528 62.6914 89.432C62.3074 89.336 61.9234 89.1813 61.5394 88.968C61.1661 88.7547 60.7714 88.4667 60.3554 88.104C59.9501 87.7413 59.5074 87.2933 59.0274 86.76L61.7474 86.072C62.0354 86.4667 62.3021 86.7813 62.5474 87.016C62.7928 87.2507 63.0274 87.416 63.2514 87.512C63.4861 87.608 63.7314 87.656 63.9874 87.656C64.6701 87.656 65.2781 87.3787 65.8114 86.824L66.9634 88.2C66.2061 89.1173 65.1981 89.576 63.9394 89.576ZM60.2754 84.984C60.7768 84.984 61.2354 84.8987 61.6514 84.728C62.0781 84.5573 62.4514 84.312 62.7714 83.992C63.0914 83.672 63.3368 83.2933 63.5074 82.856C63.6888 82.408 63.7794 81.9227 63.7794 81.4C63.7794 80.8667 63.6888 80.3813 63.5074 79.944C63.3368 79.5067 63.0914 79.128 62.7714 78.808C62.4514 78.488 62.0781 78.2427 61.6514 78.072C61.2354 77.9013 60.7768 77.816 60.2754 77.816C59.7741 77.816 59.3101 77.9013 58.8834 78.072C58.4568 78.2427 58.0834 78.488 57.7634 78.808C57.4541 79.128 57.2088 79.5067 57.0274 79.944C56.8568 80.3813 56.7714 80.8667 56.7714 81.4C56.7714 81.9227 56.8568 82.408 57.0274 82.856C57.2088 83.2933 57.4541 83.672 57.7634 83.992C58.0834 84.312 58.4568 84.5573 58.8834 84.728C59.3101 84.8987 59.7741 84.984 60.2754 84.984ZM68.3514 87V75.8H70.9434V84.888H76.5594V87H68.3514Z" fill="black"/>
<g clip-path="url(#clip0_48_251)">
<path d="M49.0799 71.9052C47.7019 71.7861 44.4312 71.2687 43.1811 70.9721C40.3112 70.2913 37.55 69.0709 35.885 67.7473C34.8496 66.9243 33.7484 65.4792 33.2936 64.3467C33.0988 63.8618 32.8869 62.9398 32.8043 62.2185C32.7052 61.3534 32.6717 53.0104 32.6997 36.1628L32.7409 11.3797L33.2343 10.3467C35.1448 6.34634 41.6839 3.41036 51.1395 2.30741C53.6007 2.02032 59.7083 1.90238 62.2759 2.09235C70.1087 2.67188 76.5447 4.48013 80.7709 7.28875C81.9772 8.09042 83.4307 9.51042 83.9267 10.3718C84.688 11.6939 84.6769 11.4636 84.6029 24.3891C84.5654 30.9402 84.497 36.2966 84.4508 36.2921C84.4046 36.2882 82.3587 34.4065 79.9044 32.1117L75.4421 27.9392L63.1878 27.9322L50.9335 27.9252V49.9623V71.9994L50.2813 71.9763C49.9226 71.9637 49.382 71.9314 49.0799 71.9052ZM61.7804 17.0766C68.5442 16.6706 73.4393 15.4067 75.5381 13.5244C76.3794 12.7698 76.6091 12.3283 76.6091 11.4658C76.6091 10.9072 76.5274 10.6752 76.1597 10.189C74.6661 8.21416 70.4983 6.78812 64.1145 6.06767C61.6993 5.7951 54.0123 5.84182 51.414 6.14488C47.2187 6.63419 44.1251 7.31492 41.8715 8.24467C40.4378 8.83616 39.8955 9.15137 39.2171 9.78771C37.2501 11.6327 38.4286 13.4957 42.5162 15.0028C44.9508 15.9005 48.8434 16.6431 52.6498 16.936C56.5226 17.2341 58.6198 17.2663 61.7804 17.0766ZM53.5422 51.2661V30.5334H63.4689H73.3957L80.3229 36.3431L87.2501 42.1528L87.285 57.0758L87.3199 71.9989H70.431H53.5422L53.5422 51.2661ZM84.5727 56.4836V43.5772H79.4238H74.275V38.3597V33.1422H65.213H56.151V51.2661V69.3901H70.3618H84.5727V56.4836ZM60.5447 59.4357V58.1313H64.5265H68.5082V59.4357V60.74H64.5265H60.5447V59.4357ZM70.9797 59.4357V58.1313H74.8928H78.806V59.4357V60.74H74.8928H70.9797V59.4357ZM60.6039 55.4789C60.5648 55.377 60.5509 54.7736 60.5731 54.138L60.6134 52.9824L64.5659 52.946L68.5183 52.9096L68.479 54.2505L68.4397 55.5913L64.5574 55.6278C61.4007 55.6574 60.6617 55.6297 60.6039 55.4789ZM71.0712 55.5683C71.0208 55.518 70.9797 54.9 70.9797 54.1952V52.9137H74.8929H78.806V54.2868V55.6598H74.9844C72.8825 55.6598 71.1216 55.6186 71.0712 55.5683ZM60.6031 50.2592C60.5645 50.1585 60.551 49.5561 60.5731 48.9205L60.6134 47.7649L64.5609 47.7285L68.5083 47.6921V49.0672V50.4423H64.5909C61.4526 50.4423 60.6594 50.4059 60.6031 50.2592ZM70.9797 49.0692V47.6962H74.8928H78.806V49.0692V50.4423H74.8928H70.9797V49.0692ZM60.6031 45.0417C60.5645 44.9409 60.551 44.3386 60.5731 43.703L60.6134 42.5474H64.5265H68.4397L68.479 43.8861L68.5183 45.2248H64.5958C61.4535 45.2248 60.6594 45.1884 60.6031 45.0417ZM60.5447 38.7029V37.3985H64.5265H68.5083V38.7029V40.0073H64.5265H60.5447V38.7029Z" fill="#00BCF2"/>
</g>
<defs>
<clipPath id="clip0_48_251">
<rect width="70" height="70" fill="white" transform="translate(25 2)"/>
</clipPath>
</defs>
</svg>
