<svg width="39" height="39" viewBox="0 0 39 39" fill="none" xmlns="http://www.w3.org/2000/svg">
<path d="M9.5 17.5556H14.5M9.5 31.1667L17 25.3333L22 29.2222L29.5 23.3889M22 2H10C7.19975 2 5.7996 2 4.73005 2.42387C3.78923 2.7967 3.02432 3.39162 2.54497 4.12337C2 4.95524 2 6.04425 2 8.22222V30.7778C2 32.9557 2 34.0448 2.54497 34.8767C3.02432 35.6084 3.78923 36.2034 4.73005 36.5761C5.7996 37 7.19975 37 10 37H29C31.8003 37 33.2005 37 34.27 36.5761C35.2108 36.2034 35.9757 35.6084 36.455 34.8767C37 34.0448 37 32.9557 37 30.7778V13.6667M22 2L37 13.6667M22 2V10.5556C22 11.6445 22 12.189 22.2725 12.605C22.5123 12.9708 22.8945 13.2683 23.365 13.4547C23.8997 13.6667 24.5998 13.6667 26 13.6667H37" stroke="#003666" stroke-width="3" stroke-linecap="round" stroke-linejoin="round"/>
</svg>
