<svg width="20" height="12" viewBox="0 0 20 12" fill="none" xmlns="http://www.w3.org/2000/svg">
<path fill-rule="evenodd" clip-rule="evenodd" d="M12.8 9.8999C12.713 9.9649 12.608 10 12.5 10H3C2.448 10 2 9.552 2 9V3C2 2.448 2.448 2 3 2H12.5C12.608 2 12.713 2.0351 12.8 2.1001L18 6L12.8 9.8999ZM19.2 4.3999L13.6 0.200195C13.427 0.0701953 13.216 0 13 0H2C0.895 0 0 0.895 0 2V10C0 11.105 0.895 12 2 12H13C13.216 12 13.427 11.9298 13.6 11.7998L19.2 7.6001C20.267 6.8001 20.267 5.1999 19.2 4.3999Z" fill="white"/>
</svg>
