<svg width="49" height="49" viewBox="0 0 49 49" fill="none" xmlns="http://www.w3.org/2000/svg">
<path d="M24.5 4.16504C13.2708 4.16504 4.08334 13.3321 4.08334 24.6226C4.08334 34.8309 11.5558 43.3038 21.315 44.8351V30.5434H16.1292V24.6226H21.315V20.1105C21.315 14.9859 24.3571 12.1684 29.0325 12.1684C31.2579 12.1684 33.5854 12.5563 33.5854 12.5563V17.5992H31.0129C28.4812 17.5992 27.685 19.1713 27.685 20.7842V24.6226H33.3608L32.4421 30.5434H27.685V44.8351C32.496 44.0752 36.877 41.6205 40.0369 37.9138C43.1968 34.2074 44.9277 29.4932 44.9167 24.6226C44.9167 13.3321 35.7292 4.16504 24.5 4.16504Z" fill="#DFDFDF"/>
</svg>
