<svg width="800" height="800" viewBox="0 0 800 800" fill="none" xmlns="http://www.w3.org/2000/svg">
<path d="M400.001 184.756C451.014 184.756 492.386 143.397 492.386 92.3844C492.386 41.3719 451.015 0 400.001 0C348.987 0 307.629 41.3703 307.629 92.3844C307.629 143.398 348.989 184.756 400.001 184.756Z" fill="#FDC401"/>
<path d="M400.002 356.569C463.46 356.569 528.447 334.595 518.306 273.759C514.177 249.053 493.747 214.42 478.228 198.914C476.219 196.917 467.122 196.395 464.65 197.926C445.819 209.542 423.71 216.314 400 216.314C376.303 216.314 354.194 209.542 335.364 197.926C332.891 196.395 323.792 196.917 321.785 198.914C306.278 214.42 285.825 249.053 281.706 273.759C271.567 334.597 336.556 356.569 400.002 356.569Z" fill="#FDC401"/>
<path d="M149.508 628.197C200.52 628.197 241.892 586.838 241.892 535.825C241.892 484.8 200.522 443.441 149.508 443.441C98.4936 443.441 57.1343 484.8 57.1343 535.825C57.1358 586.838 98.4952 628.197 149.508 628.197Z" fill="#FDC401"/>
<path d="M227.734 642.366C225.726 640.345 216.63 639.847 214.156 641.367C195.314 652.983 173.217 659.745 149.508 659.745C125.8 659.745 103.701 652.984 84.8702 641.367C82.3968 639.848 73.2874 640.345 71.2812 642.366C55.7734 657.861 35.3327 692.494 31.2155 717.2C21.0734 778.038 86.0624 800 149.508 800C212.966 800 277.955 778.038 267.811 717.2C263.684 692.494 243.242 657.861 227.734 642.366Z" fill="#FDC401"/>
<path d="M650.49 628.197C701.503 628.197 742.862 586.838 742.862 535.825C742.862 484.8 701.503 443.441 650.49 443.441C599.478 443.441 558.106 484.8 558.106 535.825C558.108 586.838 599.478 628.197 650.49 628.197Z" fill="#FDC401"/>
<path d="M768.784 717.2C764.666 692.494 744.225 657.861 728.719 642.366C726.709 640.345 717.602 639.847 715.128 641.367C696.297 652.983 674.2 659.745 650.491 659.745C626.783 659.745 604.684 652.984 585.842 641.367C583.369 639.848 574.272 640.345 572.264 642.366C556.758 657.861 536.322 692.494 532.192 717.2C522.052 778.038 587.033 800 650.491 800C713.937 800 778.925 778.038 768.784 717.2Z" fill="#FDC401"/>
<path d="M525.375 579.645L415.238 516.064V388.9C415.238 380.483 408.42 373.666 400.003 373.666C391.597 373.666 384.78 380.483 384.78 388.9V516.064L274.642 579.645C267.361 583.853 264.853 593.18 269.061 600.461C273.27 607.745 282.594 610.239 289.877 606.042L400.002 542.448L510.139 606.03C517.422 610.239 526.736 607.744 530.944 600.459C535.153 593.18 532.656 583.853 525.375 579.645Z" fill="#FDC401"/>
</svg>
