<svg width="800" height="800" viewBox="0 0 800 800" fill="none" xmlns="http://www.w3.org/2000/svg">
<path fill-rule="evenodd" clip-rule="evenodd" d="M200 0H300V100H500V200H443.403C428.536 283.498 389.287 358.558 333.28 417.556C373.283 436.97 417.869 448.421 464.974 449.849L513.675 300H636.325L798.825 800H693.675L661.175 700H488.824L456.323 800H351.175L433.088 547.96C366.32 541.425 304.083 519.44 249.999 485.623C184.748 526.42 107.627 550 25 550H0V450H25C75.805 450 123.887 438.342 166.718 417.556C134.19 383.291 107.315 343.608 87.5855 300H201.09C215.012 321.745 231.452 341.723 249.999 359.522C294.372 316.941 326.684 261.888 341.303 200H0V100H200V0ZM628.675 600L575 434.844L521.325 600H628.675Z" fill="#FDC401"/>
</svg>
