<svg width="36" height="36" viewBox="0 0 36 36" fill="none" xmlns="http://www.w3.org/2000/svg">
<g clip-path="url(#clip0_45_61)">
<path d="M33.1875 0H2.8125C1.25859 0 0 1.25859 0 2.8125V33.1875C0 34.7414 1.25859 36 2.8125 36H33.1875C34.7414 36 36 34.7414 36 33.1875V2.8125C36 1.25859 34.7414 0 33.1875 0ZM12.9656 25.5305H9.45703V14.3016H12.9656V25.5305ZM11.1164 12.8953H11.0883C9.81563 12.8953 8.99297 12.0375 8.99297 10.9477C8.99297 9.83672 9.84375 9 11.1375 9C12.4312 9 13.2258 9.83672 13.2539 10.9477C13.2609 12.0305 12.4383 12.8953 11.1164 12.8953ZM27 25.5305H23.0203V19.7227C23.0203 18.2039 22.4016 17.1633 21.0305 17.1633C19.9828 17.1633 19.3992 17.8664 19.132 18.5414C19.0336 18.7805 19.0477 19.118 19.0477 19.4625V25.5305H15.1031C15.1031 25.5305 15.1523 15.2367 15.1031 14.3016H19.0477V16.0664C19.2797 15.293 20.5383 14.1961 22.5492 14.1961C25.0453 14.1961 27 15.8133 27 19.2867V25.5305Z" fill="#003766"/>
</g>
<defs>
<clipPath id="clip0_45_61">
<rect width="36" height="36" fill="white"/>
</clipPath>
</defs>
</svg>
