<svg width="128" height="128" viewBox="0 0 128 128" fill="none" xmlns="http://www.w3.org/2000/svg">
<path d="M21.9688 16.9375L18.0312 31.6562L83.5625 49.2188H17.1875V111.062H109.156V49.2188H108.562L110.812 40.75L21.9688 16.9375ZM29.1562 22.2812L36.6562 24.2812L34.5625 32.6875L27.125 30.6875L29.1562 22.2812ZM41.6875 25.625L49.1562 27.625L47.0938 36.0312L39.5938 34.0312L41.6875 25.625ZM54.1875 29L61.6875 31L59.5938 39.375L52.125 37.375L54.1875 29ZM66.7188 32.3438L74.1562 34.3438L72.125 42.75L64.625 40.75L66.7188 32.3438ZM79.2188 35.6875L86.6875 37.6875L84.625 46.0938L77.125 44.0938L79.2188 35.6875ZM100.188 43.7188C101.8 43.7188 103.125 45.0124 103.125 46.625C103.125 48.2376 101.8 49.5312 100.188 49.5312C98.5749 49.5312 97.2812 48.2376 97.2812 46.625C97.2812 45.0124 98.5749 43.7188 100.188 43.7188ZM25.5 55.75H33.25L38 67.0625H30.2812L25.5 55.75ZM38.4688 55.75H46.1875L50.9688 67.0625H43.2188L38.4688 55.75ZM51.4062 55.75H59.1562L63.9062 67.0625H56.1875L51.4062 55.75ZM64.375 55.75H72.0938L76.875 67.0625H69.125L64.375 55.75ZM77.3125 55.75H85.0625L89.8125 67.0625H82.0625L77.3125 55.75ZM25.5 79.0312H89.8125V85H25.5V79.0312ZM25.5 95.125H89.8125V101.062H25.5V95.125Z" fill="#FDC401"/>
</svg>
