<svg width="50" height="50" viewBox="0 0 50 50" fill="none" xmlns="http://www.w3.org/2000/svg">
<g clip-path="url(#clip0_14_851)">
<rect width="50" height="50" fill="#FDC401"/>
<path d="M25 50C38.8071 50 50 38.8071 50 25C50 11.1929 38.8071 0 25 0C11.1929 0 0 11.1929 0 25C0 38.8071 11.1929 50 25 50Z" fill="#003666"/>
<g opacity="0.2">
<path d="M22.6562 19.7656C22.3438 16.0156 18.4375 14.2188 18.2812 14.1406C18.0469 14.0625 17.8906 14.0625 17.7344 14.0625C13.2031 14.8438 12.5781 17.4219 12.5 17.5781C12.5 17.7344 12.5 17.8906 12.5 18.0469C17.8906 34.7656 29.0625 37.8125 32.7344 38.8281C33.0469 38.9062 33.2812 38.9844 33.4375 39.0625C33.5156 39.0625 33.5937 39.1406 33.6719 39.1406C33.8281 39.1406 33.9062 39.1406 34.0625 39.0625C34.1406 38.9844 36.7969 37.7344 37.5 33.6719C37.5 33.5156 37.5 33.2813 37.4219 33.125C37.3438 33.0469 35.9375 30.3906 32.1094 29.4531C31.875 29.375 31.5625 29.4531 31.3281 29.6094C30.0781 30.625 28.4375 31.7188 27.7344 31.875C22.8906 29.5312 20.1563 24.9219 20.0781 24.0625C20 23.5937 21.0938 21.875 22.4219 20.4688C22.5781 20.3125 22.6562 20 22.6562 19.7656Z" fill="#231F20"/>
</g>
<path d="M22.6562 18.2031C22.3438 14.4531 18.4375 12.6563 18.2812 12.5781C18.0469 12.5 17.8906 12.5 17.7344 12.5C13.2031 13.2812 12.5781 15.8594 12.5 16.0156C12.5 16.1719 12.5 16.3281 12.5 16.4844C17.8906 33.2031 29.0625 36.25 32.7344 37.2656C33.0469 37.3438 33.2812 37.4219 33.4375 37.5C33.5156 37.5 33.5937 37.5781 33.6719 37.5781C33.8281 37.5781 33.9062 37.5781 34.0625 37.5C34.1406 37.4219 36.7969 36.1719 37.5 32.1094C37.5 31.9531 37.5 31.7188 37.4219 31.5625C37.3438 31.4844 35.9375 28.8281 32.1094 27.8906C31.875 27.8125 31.5625 27.8906 31.3281 28.0469C30.0781 29.0625 28.4375 30.1562 27.7344 30.3125C22.8906 27.9687 20.1563 23.3594 20.0781 22.5C20 22.0312 21.0938 20.3125 22.4219 18.9063C22.5781 18.75 22.6562 18.4375 22.6562 18.2031Z" fill="#FDC401"/>
</g>
<defs>
<clipPath id="clip0_14_851">
<rect width="50" height="50" fill="white"/>
</clipPath>
</defs>
</svg>
